<svg id="Layer_1" data-name="Layer 1" xmlns="http://www.w3.org/2000/svg" viewBox="0 0 496.01 487.99"><defs><style>.cls-1{fill:#fb8312;}.cls-2{fill:#8f4a02;}</style></defs><path class="cls-1" d="M431.73,268.63a104,104,0,0,0-207.46,0,80,80,0,0,0-15.75,156.11,59.48,59.48,0,0,1,17.08-34.91l17-17a36,36,0,0,1,50.9,0l16.94,17a59.46,59.46,0,0,1,17.38,38.4h2A71.54,71.54,0,0,1,349.07,393l26.4-26.4a34.63,34.63,0,0,1,49,0l0,0,26.4,26.4a71.86,71.86,0,0,1,15.47,23,79.92,79.92,0,0,0-34.62-147.38ZM392,284.26a8,8,0,0,1-8-8,56.07,56.07,0,0,0-56-56,8,8,0,0,1,0-16,72.08,72.08,0,0,1,72,72A8,8,0,0,1,392,284.26Z" transform="translate(-8 -12)"/><path class="cls-1" d="M456,444a55.64,55.64,0,0,0-16.41-39.6L413.19,378a18.66,18.66,0,0,0-26.39,0h0l-26.4,26.4A56,56,0,1,0,456,444Zm-39-28.29a8,8,0,0,1,11.31,0A39.73,39.73,0,0,1,440,444a8,8,0,0,1-16,0,23.93,23.93,0,0,0-7-17,8,8,0,0,1,0-11.31Z" transform="translate(-8 -12)"/><path class="cls-1" d="M312,432.26a43.69,43.69,0,0,0-12.89-31.1l-17-17a20,20,0,0,0-28.28,0l-17,17a44,44,0,1,0,75.1,31.1Zm-35.51-19.79a8,8,0,0,1,11.31,0,27.81,27.81,0,0,1,8.2,19.79,8,8,0,0,1-16,0,12,12,0,0,0-3.51-8.48,8,8,0,0,1,0-11.31Z" transform="translate(-8 -12)"/><path class="cls-2" d="M264,236a56,56,0,1,0-87.12,46.52,82.65,82.65,0,0,0-48.88,76V388a24,24,0,0,0,24,24H264a24,24,0,0,0,24-24V356a80,80,0,0,0-48.7-73.6A56,56,0,0,0,264,236Zm-96,0a40,40,0,1,1,40,40A40,40,0,0,1,168,236ZM272,356v32a8,8,0,0,1-8,8H152a8,8,0,0,1-8-8V358.47A65.22,65.22,0,0,1,207.92,292h.14A63.94,63.94,0,0,1,272,355.93Z" transform="translate(-8 -12)"/><path class="cls-2" d="M10.35,121.66l96,96a8,8,0,0,0,11.31,0l96-96A8,8,0,0,0,208,108H184V20a8,8,0,0,0-16,0v96a8,8,0,0,0,8,8h12.69L112,200.69,35.32,124H48a8,8,0,0,0,8-8V20a8,8,0,0,0-16,0v88H16a8,8,0,0,0-5.65,13.66Z" transform="translate(-8 -12)"/><path class="cls-2" d="M400,156H376V44a8,8,0,0,0-16,0V164a8,8,0,0,0,8,8h12.69L328,224.69,275.32,172H288a8,8,0,0,0,8-8V44a8,8,0,0,0-16,0V156H256a8,8,0,0,0-5.66,13.66l72,72a8,8,0,0,0,11.32,0l72-72A8,8,0,0,0,400,156Z" transform="translate(-8 -12)"/><path class="cls-2" d="M400,324H384V252a8,8,0,0,0-16,0v80a8,8,0,0,0,8,8h4.69L352,368.69,323.32,340H328a8,8,0,0,0,8-8V276a8,8,0,0,0-16,0v48H304a8,8,0,0,0-5.66,13.66l48,48a8,8,0,0,0,11.32,0l48-48A8,8,0,0,0,400,324Z" transform="translate(-8 -12)"/><path class="cls-2" d="M69.66,361.66l48-48A8,8,0,0,0,112,300H96V244a8,8,0,0,0-16,0v64a8,8,0,0,0,8,8h4.69L64,344.69,35.32,316H40a8,8,0,0,0,8-8V212a8,8,0,0,0-16,0v88H16a8,8,0,0,0-5.66,13.66l48,48a8,8,0,0,0,11.32,0Z" transform="translate(-8 -12)"/></svg>