<svg id="Layer_1" data-name="Layer 1" xmlns="http://www.w3.org/2000/svg" viewBox="0 0 488.03 496"><defs><style>.cls-1{fill:#fb8312;}.cls-2{fill:#8f4a02;}</style></defs><path class="cls-1" d="M373.29,281.6a37.68,37.68,0,0,0-29.51,13.47,8.3,8.3,0,0,1-11.65,1.35,8.47,8.47,0,0,1-1.31-1.3,37.75,37.75,0,0,0-29.53-13.52A28.74,28.74,0,0,0,273.24,311c0,.39,0,.79.05,1.18,0,21.09,16.86,49,64,65,47.13-15.95,64-43.89,64-65a28.75,28.75,0,0,0-26.82-30.55Z" transform="translate(-11.98 -8)"/><path class="cls-1" d="M496,277.44a23.87,23.87,0,0,0,.74-25.22l-14.1-24.44a23.8,23.8,0,0,0-22.22-12l-41.31,2.48-27.76-16-18.5-37A23.87,23.87,0,0,0,351.4,152H323.2a23.86,23.86,0,0,0-21.46,13.26l-18.54,37-27.77,16-41.3-2.48a23.89,23.89,0,0,0-22.22,12L177.8,252.18a23.91,23.91,0,0,0,.8,25.24L201.37,312v32l-22.81,34.56a23.9,23.9,0,0,0-.75,25.22l14.11,24.44a23.83,23.83,0,0,0,22.22,12l41.3-2.48,27.77,16,18.5,37A23.88,23.88,0,0,0,323.2,504h28.22a23.9,23.9,0,0,0,21.47-13.26l18.5-37,27.76-16,41.31,2.47a23.62,23.62,0,0,0,22.22-12l14.12-24.46a23.89,23.89,0,0,0-.8-25.23L473.21,344V312ZM339.74,393.22a8.07,8.07,0,0,1-4.91,0c-57.17-18.4-77.54-53.93-77.54-81a44.86,44.86,0,0,1,43.1-46.57l.9,0a54.46,54.46,0,0,1,36,13.32,54.44,54.44,0,0,1,36-13.32,44.86,44.86,0,0,1,44,45.7c0,.3,0,.6,0,.9C417.29,339.29,396.91,374.79,339.74,393.22Z" transform="translate(-11.98 -8)"/><path class="cls-2" d="M18.05,262.35a24,24,0,0,0-2.83,27.92l20.47,35.46a23.89,23.89,0,0,0,25.6,11.5L96.58,330,144,357.42l11.4,34.17A24,24,0,0,0,178.19,408h40.94a24,24,0,0,0,22.77-16.41l11.4-34.17L300.74,330l35.28,7.2a23.94,23.94,0,0,0,25.6-11.51l20.46-35.45a24,24,0,0,0-2.82-27.93l-23.91-26.95V180.61l23.91-27a24,24,0,0,0,2.82-27.92L361.6,90.28A23.93,23.93,0,0,0,336,78.76L300.7,86,253.26,58.57,241.9,24.41A24,24,0,0,0,219.13,8H178.19a24,24,0,0,0-22.77,16.41L144,58.59,96.56,86l-35.3-7.2A24,24,0,0,0,35.66,90.3L15.2,125.73A24,24,0,0,0,18,153.65l23.91,27v54.78Zm224.61,82.72a8,8,0,0,0-3.59,4.4l-12.35,37.06a8,8,0,0,1-7.59,5.47H206.66V304a8,8,0,0,0-8-8h-40V264a8,8,0,0,0-2.34-5.66l-19.59-19.58,20.8-34.64a8.08,8.08,0,0,0,1.13-4.12V184a64,64,0,0,1,128,0V319.67ZM55.94,172.27,30,143a8,8,0,0,1-.94-9.3L49.54,98.28a8,8,0,0,1,8.54-3.88l38.26,7.83a8,8,0,0,0,5.6-.9l52.71-30.4a8.05,8.05,0,0,0,3.59-4.4l12.35-37.06a8,8,0,0,1,7.6-5.47h40.94a8,8,0,0,1,7.59,5.47l12.35,37.06a8,8,0,0,0,3.59,4.4l52.71,30.4a8,8,0,0,0,5.6.9l38.26-7.82a7.91,7.91,0,0,1,8.53,3.83l20.47,35.46a8,8,0,0,1-.93,9.3l-25.92,29.23a8,8,0,0,0-2,5.31V238.4a8,8,0,0,0,2,5.3l25.92,29.23a8,8,0,0,1,.93,9.31L347.77,317.7a8,8,0,0,1-8.54,3.83l-36.58-7.48V184a80,80,0,1,0-160,0v13.78l-22.86,38.1a8,8,0,0,0,1.2,9.78l21.66,21.65V296a16,16,0,0,0,16,16h32v80H178.19a8,8,0,0,1-7.59-5.47l-12.35-37.06a8.05,8.05,0,0,0-3.59-4.4L102,314.67a8,8,0,0,0-5.6-.9L58.07,321.6a8,8,0,0,1-8.52-3.83l-20.47-35.5A8,8,0,0,1,30,273l25.92-29.22a8,8,0,0,0,2-5.31V177.6a8,8,0,0,0-2-5.34Z" transform="translate(-11.98 -8)"/><path class="cls-2" d="M222.66,136a47.7,47.7,0,0,0-33.94,14.06,19.43,19.43,0,0,0-4.05,19.88c5.25,19.56,32.49,46.8,52.05,52.05a19.67,19.67,0,0,0,19.88-4.05A48,48,0,0,0,222.66,136Zm22.63,70.63c-.43.41-2,.55-4.43-.09a78.5,78.5,0,0,1-40.73-40.74c-.66-2.46-.51-4-.1-4.43a32,32,0,0,1,45.26,45.26Z" transform="translate(-11.98 -8)"/></svg>