<svg id="Layer_1" data-name="Layer 1" xmlns="http://www.w3.org/2000/svg" viewBox="0 0 472.13 496.02"><defs><style>.cls-1{fill:#fb8312;}.cls-2{fill:#8f4a02;}</style></defs><path class="cls-1" d="M444,280V232a80,80,0,0,0-160,0v48h40V232a40,40,0,0,1,80,0v48Z" transform="translate(-19.87 -7.98)"/><path class="cls-1" d="M468,296H260a24,24,0,0,0-24,24V480a24,24,0,0,0,24,24H468a24,24,0,0,0,24-24V320A24,24,0,0,0,468,296ZM372,406.53V448a8,8,0,0,1-16,0V406.53a24,24,0,1,1,16,0Z" transform="translate(-19.87 -7.98)"/><path class="cls-2" d="M412,392H380a8,8,0,0,1-8-8V136a127.91,127.91,0,0,0-251.78-32H82.86a32,32,0,1,0,0,16h34.25A127.75,127.75,0,0,0,116,136v45.6l-30.66,46A8,8,0,0,0,87.2,238.4L116,260v52a24,24,0,0,0,24,24h48v48a8,8,0,0,1-8,8H124a8,8,0,0,0,0,16h56a24,24,0,0,0,24-24V328a8,8,0,0,0-8-8H140a8,8,0,0,1-8-8V256a8,8,0,0,0-3.2-6.4l-26-19.46,27.81-41.7A8.07,8.07,0,0,0,132,184V136a111.34,111.34,0,0,1,1.28-16H164v32a8,8,0,0,0,16,0V120h8a8,8,0,0,1,8,8v32a8,8,0,0,0,16,0V128a24,24,0,0,0-24-24H136.72A112,112,0,0,1,356,136V384a24,24,0,0,0,24,24h32a8,8,0,0,0,0-16ZM52,128a16,16,0,1,1,16-16A16,16,0,0,1,52,128Z" transform="translate(-19.87 -7.98)"/><path class="cls-2" d="M268,80a31.92,31.92,0,0,0-24.69,52.25l-7.2,50.61a8,8,0,0,0,6.78,9.06A8.29,8.29,0,0,0,244,192h48a8,8,0,0,0,8-8,8.74,8.74,0,0,0-.08-1.14l-7.2-50.61A31.92,31.92,0,0,0,268,80Zm8.3,50.72L282.78,176H253.22l6.48-45.28a8,8,0,0,0-2.51-7A15.79,15.79,0,0,1,252,112a16,16,0,0,1,32,0,15.79,15.79,0,0,1-5.19,11.7,8,8,0,0,0-2.51,7Z" transform="translate(-19.87 -7.98)"/></svg>