<svg id="Layer_1" data-name="Layer 1" xmlns="http://www.w3.org/2000/svg" viewBox="0 0 432.07 496.01"><defs><style>.cls-1{fill:#fb8312;}.cls-2{fill:#8f4a02;}</style></defs><path class="cls-1" d="M200,376a94.79,94.79,0,0,1-15.95-1.44l-15.63,46.91A8,8,0,0,0,176,432h23.06l-7,63.12a8,8,0,0,0,14.1,6l80-96A8,8,0,0,0,280,392H260.94l8-16Z" transform="translate(-40 -8)"/><path class="cls-1" d="M392,376H319.57l-15.15,45.47A8,8,0,0,0,312,432h23.06l-7,63.12a8,8,0,0,0,14.1,6l80-96A8,8,0,0,0,416,392H396.94l8.53-17.06A94.92,94.92,0,0,1,392,376Z" transform="translate(-40 -8)"/><path class="cls-1" d="M399.73,200.36a104,104,0,0,0-207.46,0A80,80,0,0,0,200,360H392a80,80,0,0,0,7.73-159.63ZM360,216a8,8,0,0,1-8-8,56.07,56.07,0,0,0-56-56,8,8,0,0,1,0-16,72.07,72.07,0,0,1,72,72A8,8,0,0,1,360,216Z" transform="translate(-40 -8)"/><path class="cls-2" d="M368,392H336a8,8,0,0,1-8-8V136a128,128,0,0,0-256,0v45.6l-30.66,46A8,8,0,0,0,43.2,238.4L72,260v52a24,24,0,0,0,24,24h48v48a8,8,0,0,1-8,8H80a8,8,0,0,0,0,16h56a24,24,0,0,0,24-24V328a8,8,0,0,0-8-8H96a8,8,0,0,1-8-8V256a8,8,0,0,0-3.2-6.4L58.85,230.14l27.81-41.7A8.07,8.07,0,0,0,88,184V136a112,112,0,0,1,224,0V384a24,24,0,0,0,24,24h32a8,8,0,0,0,0-16Z" transform="translate(-40 -8)"/><path class="cls-2" d="M149.66,285.66l120-120A8,8,0,0,0,264,152H235.42l28.09-77.26A8,8,0,0,0,256,64H168a8,8,0,0,0-7.35,4.85l-48,112A8,8,0,0,0,120,192h30.55L136.1,278.68a8,8,0,0,0,13.56,7ZM132.13,176l41.14-96h71.31l-28.1,77.26A8,8,0,0,0,224,168h20.69L156,256.69l11.9-71.37a8,8,0,0,0-6.57-9.21A8.52,8.52,0,0,0,160,176Z" transform="translate(-40 -8)"/></svg>