<svg id="Layer_1" data-name="Layer 1" xmlns="http://www.w3.org/2000/svg" viewBox="0 0 496 496"><defs><style>.cls-1{fill:#fb8312;}.cls-2{fill:#8f4a02;}</style></defs><path class="cls-1" d="M248,356v52a24,24,0,0,0,24,24h48v64a8,8,0,0,0,8,8H496a8,8,0,0,0,8-8V232a128,128,0,0,0-256,0v45.6l-30.66,46a8,8,0,0,0,1.86,10.82Zm136.72,20A11.25,11.25,0,1,1,396,364.78v0A11.24,11.24,0,0,1,384.72,376ZM330,215.58A55.28,55.28,0,1,1,392.72,278v42a8,8,0,0,1-16,0V270.56a8,8,0,0,1,8-8,39.27,39.27,0,0,0,.8-78.54h-.8a39.27,39.27,0,0,0-38.91,33.79,42,42,0,0,0-.38,5.49,8,8,0,0,1-16,0A55.45,55.45,0,0,1,330,215.58Z" transform="translate(-8 -8)"/><path class="cls-2" d="M384,56H360V32A24,24,0,0,0,336,8H32A24,24,0,0,0,8,32V240a24,24,0,0,0,24,24H56v40a8,8,0,0,0,12.44,6.66L128,270.94V288a24,24,0,0,0,24,24H277.6l70,46.66A8,8,0,0,0,360,352V312h24a24,24,0,0,0,24-24V80A24,24,0,0,0,384,56ZM64,248H32a8,8,0,0,1-8-8V32a8,8,0,0,1,8-8H336a8,8,0,0,1,8,8V240a8,8,0,0,1-8,8H136a9.66,9.66,0,0,0-4.44,1.34L72,289.06V256A8,8,0,0,0,64,248Zm328,40a8,8,0,0,1-8,8H352a8,8,0,0,0-8,8v33.06l-59.56-39.72A8.07,8.07,0,0,0,280,296H152a8,8,0,0,1-8-8V264H336a24,24,0,0,0,24-24V72h24a8,8,0,0,1,8,8Z" transform="translate(-8 -8)"/><path class="cls-2" d="M104.3,197.48a40.1,40.1,0,0,0,30.56-.8,50.45,50.45,0,0,0,33.92,18.87,75.93,75.93,0,0,0,40.56-7.34,92.73,92.73,0,0,0,25.44-16.35A51.19,51.19,0,0,0,260.14,181a74.54,74.54,0,0,0,27.51-50.29,70.8,70.8,0,0,0-18-55C250,54.81,219,54.58,192.25,64a36.87,36.87,0,0,0-5.12-3.94A44.07,44.07,0,0,0,149.69,58,104.8,104.8,0,0,0,88,119.69a90.14,90.14,0,0,0-7.76,40.86A43.46,43.46,0,0,0,104.3,197.48ZM145,139.81a20.32,20.32,0,0,1,16.52-11.54h.16a5.55,5.55,0,0,1,6.13,4.35c2.58,8.6-3.94,27.09-26.14,42.26A46.73,46.73,0,0,1,145,139.81Zm88.09,29.37a51.34,51.34,0,0,1-5,6.64,15.88,15.88,0,0,1-5.47-1.88,24.39,24.39,0,0,1-10.46-17,36.41,36.41,0,0,1,3.33-22.53c5.47-10.76,16.25-15.7,22.11-1.46a41.07,41.07,0,0,1-4.53,36.22Zm-33-75.39a31.36,31.36,0,0,0,.57-15.6c19.56-6.1,42.85-6.9,57.31,8.48a55.38,55.38,0,0,1,13.77,42.4A58.39,58.39,0,0,1,252,167a54.74,54.74,0,0,0,.39-40.11,29.67,29.67,0,0,0-16.13-17.27c-14.18-5.35-28.64,5-35,17.6a52.05,52.05,0,0,0-4.8,32.58,40.25,40.25,0,0,0,17.77,27.8,87,87,0,0,1-11.36,6,61,61,0,0,1-32.06,6.08,35,35,0,0,1-21.46-10.65c28.53-18.94,38.67-44.9,33.8-61.06a23.88,23.88,0,0,0-3.2-6.72A52.77,52.77,0,0,0,200.08,93.79Zm-14.7-9.45a17.34,17.34,0,0,1-.72,5.16,33.41,33.41,0,0,1-22.5,22.34c-1,0-1.76,0-2.57-2.4-1.17-3.51,5.14-13.1,20-22C181.41,86.4,183.34,85.37,185.38,84.34ZM102.86,125.6a88.51,88.51,0,0,1,51.75-52.4,43.9,43.9,0,0,1,13.15-2.26,24.43,24.43,0,0,1,7,.92c-1.11.63-2.21,1.26-3.3,1.91-21.21,12.65-31.3,27.89-27,40.8a24.07,24.07,0,0,0,.91,2.31A40.56,40.56,0,0,0,131.06,132a62.28,62.28,0,0,0-3.76,50.44,23.94,23.94,0,0,1-16.8.37,27.91,27.91,0,0,1-14.32-23.59A73.15,73.15,0,0,1,102.86,125.6Z" transform="translate(-8 -8)"/></svg>