<svg id="Layer_1" data-name="Layer 1" xmlns="http://www.w3.org/2000/svg" viewBox="0 0 568.8 288"><defs><style>.cls-1{opacity:0.1;}.cls-2{fill:#002545;}</style></defs><g class="cls-1"><path class="cls-2" d="M126.56,234.31h0a1,1,0,0,1-.78-.42l-4.18-5.8-4.49,5.56a1,1,0,0,1-.81.37,1,1,0,0,1-.78-.42l-4.94-6.86a1,1,0,1,1,1.63-1.17l4.17,5.8,4.49-5.56a1,1,0,0,1,.8-.37,1,1,0,0,1,.79.42l4.17,5.8,4.5-5.56a1,1,0,1,1,1.56,1.26l-5.32,6.58A1,1,0,0,1,126.56,234.31Z"/><path class="cls-2" d="M85.54,135.64a.9.9,0,0,1-.42-.1,1,1,0,0,1-.48-1.33l1.24-2.65a1,1,0,0,1,.69-.55,1,1,0,0,1,.86.22l1.23,1,.68-1.46a1,1,0,0,1,1.56-.33l2.22,1.9a1,1,0,0,1,.11,1.4,1,1,0,0,1-1.41.12l-1.22-1.05-.69,1.46a1,1,0,0,1-1.55.34l-1.23-1.05-.68,1.46A1,1,0,0,1,85.54,135.64Z"/><path class="cls-2" d="M55.23,265.74a.86.86,0,0,1-.36-.07l-2.73-1.05a1,1,0,0,1,.72-1.87l1.5.58.16-1.6A1,1,0,0,1,55,261a1,1,0,0,1,.89-.08l1.5.57.16-1.6a1,1,0,0,1,1.1-.9,1,1,0,0,1,.89,1.1L59.24,263a1,1,0,0,1-.47.75,1,1,0,0,1-.88.08l-1.51-.58-.16,1.61a1,1,0,0,1-1,.9Z"/><path class="cls-2" d="M191.62,261.65a1,1,0,0,1-.8-.4l-3.23-4.38a1,1,0,0,1-.16-.87,1,1,0,0,1,.6-.66l3.85-1.48-2.45-3.32a1,1,0,0,1-.15-.88,1,1,0,0,1,.6-.65l5.07-1.95a1,1,0,1,1,.72,1.86l-3.85,1.48,2.45,3.32a1,1,0,0,1,.16.88,1,1,0,0,1-.6.65L190,256.74l2.45,3.32a1,1,0,0,1-.81,1.59Z"/><path class="cls-2" d="M256.44,165.57a1,1,0,0,1-.7-.29l-2-2a1,1,0,0,1,1.39-1.44l1.08,1.06.73-1.33a1,1,0,0,1,.73-.51,1.06,1.06,0,0,1,.85.27l1.08,1.06.73-1.33a1,1,0,1,1,1.76,1l-1.36,2.48a1,1,0,0,1-.73.51,1.06,1.06,0,0,1-.85-.27l-1.08-1.06-.73,1.33a1,1,0,0,1-.73.51Z"/><path class="cls-2" d="M24.59,115.63a.83.83,0,0,1-.22,0L21.9,115a1,1,0,0,1,.46-1.94l1.18.27,0-1.21a1,1,0,0,1,.36-.81,1,1,0,0,1,.87-.21l1.18.28,0-1.22a1,1,0,0,1,2-.07l.09,2.53a1,1,0,0,1-.36.8,1,1,0,0,1-.87.21l-1.18-.28,0,1.22a1,1,0,0,1-.36.81A1,1,0,0,1,24.59,115.63Z"/><path class="cls-2" d="M206.46,12.35a1,1,0,0,1-.65-.24l-2.95-2.5a1,1,0,0,1,1.3-1.53l2,1.66,1.08-2.31a1,1,0,0,1,.7-.56,1,1,0,0,1,.86.22l1.95,1.66,1.08-2.32a1,1,0,0,1,1.81.85L212,10.78a1,1,0,0,1-1.55.34l-2-1.66-1.09,2.32a1,1,0,0,1-.69.55A.75.75,0,0,1,206.46,12.35Z"/><path class="cls-2" d="M150.58,139a1,1,0,0,1-.65-.24L147.86,137a1,1,0,0,1-.35-.82,1,1,0,0,1,.44-.77l1.19-.79-1.08-.93a1,1,0,0,1-.34-.82,1,1,0,0,1,.44-.77l2.27-1.52a1,1,0,1,1,1.11,1.66l-1.18.79,1.08.93a1,1,0,0,1,.34.82,1,1,0,0,1-.44.77l-1.18.79,1.07.94a1,1,0,0,1-.65,1.75Z"/><path class="cls-2" d="M39.43,158.4a1.11,1.11,0,0,1-.46-.11,1,1,0,0,1-.52-.72l-.92-5.23-4.8,2.27a1,1,0,0,1-.89,0,1,1,0,0,1-.52-.72l-1.14-6.52a1,1,0,0,1,2-.34l.92,5.23,4.8-2.27a1,1,0,0,1,1.41.74l.91,5.23L45,153.67a1,1,0,1,1,.85,1.81l-6,2.83A1,1,0,0,1,39.43,158.4Z"/><path class="cls-2" d="M131.76,33.86a1,1,0,0,1-.66-.25l-7.31-6.41a1,1,0,0,1,.11-1.59l7-4.63-6.32-5.55a1,1,0,0,1,.11-1.58l8.11-5.35a1,1,0,0,1,1.39.28,1,1,0,0,1-.29,1.39l-7,4.62,6.33,5.55a1,1,0,0,1-.11,1.58l-7,4.64,6.32,5.55a1,1,0,0,1-.66,1.75Z"/><path class="cls-2" d="M252.75,126.55a1.45,1.45,0,0,1-.29,0l-2.73-.83a1,1,0,0,1,.57-1.91l1.48.44,0-1.54a1,1,0,0,1,.41-.78,1,1,0,0,1,.87-.15l1.48.44,0-1.54a1,1,0,1,1,2,0l-.07,2.85a1,1,0,0,1-.41.78,1,1,0,0,1-.87.15l-1.48-.44,0,1.54a1,1,0,0,1-.41.79A1.06,1.06,0,0,1,252.75,126.55Z"/><path class="cls-2" d="M109.3,130.6h0a1,1,0,0,1-.78-.43l-.21-.31-.25.29a1,1,0,0,1-.81.35,1,1,0,0,1-.77-.43l-1-1.39a1,1,0,1,1,1.64-1.13l.22.31.24-.29a1,1,0,0,1,1.59.07l.22.31.24-.29a1,1,0,0,1,1.53,1.29l-1.09,1.29A1,1,0,0,1,109.3,130.6Z"/><path class="cls-2" d="M256.42,75.48a.94.94,0,0,1-.51-.14L254,74.22a1,1,0,0,1-.48-.75,1,1,0,0,1,.3-.83l.63-.61-.75-.45a1,1,0,0,1-.48-.74,1,1,0,0,1,.3-.84l1.58-1.51a1,1,0,1,1,1.39,1.44l-.63.61.74.45a1,1,0,0,1,.49.74,1,1,0,0,1-.31.84l-.63.6.75.45a1,1,0,0,1-.51,1.86Z"/><path class="cls-2" d="M67.11,189a1,1,0,0,1-.09-2l.65-.07-.23-.61a1,1,0,0,1,.08-.88,1,1,0,0,1,.75-.47l.66-.07-.23-.61a1,1,0,1,1,1.86-.71l.71,1.84a1,1,0,0,1-.09.88,1,1,0,0,1-.75.47l-.66.06.24.62a1,1,0,0,1-.09.88,1,1,0,0,1-.75.47l-2,.19Z"/><path class="cls-2" d="M266.44,131.7a1,1,0,0,1-.87-.5,1,1,0,0,1,.36-1.36l.36-.21-.3-.29a1,1,0,0,1,.2-1.58l.35-.21-.29-.29a1,1,0,0,1,0-1.41,1,1,0,0,1,1.42,0l1.23,1.21a1,1,0,0,1,.29.84,1,1,0,0,1-.49.74l-.35.21.29.28a1,1,0,0,1,.3.84,1,1,0,0,1-.49.74l-1.49.87A.93.93,0,0,1,266.44,131.7Z"/><path class="cls-2" d="M173.37,161.89a1,1,0,0,1-.16-2l4.88-.81L176,154.6a1,1,0,0,1,0-.89,1,1,0,0,1,.72-.52l4.88-.82-2.07-4.49a1,1,0,1,1,1.81-.84l2.63,5.68a1,1,0,0,1,0,.89,1,1,0,0,1-.72.52l-4.88.82,2.07,4.49a1,1,0,0,1,0,.89,1,1,0,0,1-.72.52l-6.17,1Z"/><path class="cls-2" d="M36.71,261.51a1,1,0,0,1-.33-.06,1,1,0,0,1-.61-1.28L37,256.81l-3.56-.24a1,1,0,0,1-.76-.45,1,1,0,0,1-.11-.88l1.17-3.37-3.55-.25a1,1,0,0,1-.93-1.06,1,1,0,0,1,1.06-.93l4.87.34a1,1,0,0,1,.77.44,1,1,0,0,1,.1.88l-1.17,3.37,3.55.25a1,1,0,0,1,.77.44,1,1,0,0,1,.11.89l-1.61,4.6A1,1,0,0,1,36.71,261.51Z"/><path class="cls-2" d="M9.73,43.82a1,1,0,0,1-.83-.44L6.68,40.1a1,1,0,0,1-.12-.88,1,1,0,0,1,.63-.62l2.51-.86L8.21,35.55A1,1,0,0,1,8.72,34l3.75-1.27a1,1,0,1,1,.64,1.9l-2.51.85,1.49,2.19a1,1,0,0,1,.12.88,1,1,0,0,1-.63.63l-2.51.85,1.48,2.19a1,1,0,0,1-.27,1.39A.94.94,0,0,1,9.73,43.82Z"/><path class="cls-2" d="M96.73,44.29h0a1,1,0,0,1-1-1L96,35.17a1,1,0,0,1,1.29-.93l6.49,2,.21-6.79a1,1,0,0,1,.41-.78,1,1,0,0,1,.88-.14L113,30.89a1,1,0,0,1-.59,1.92l-6.48-2-.21,6.78a1,1,0,0,1-.41.78,1,1,0,0,1-.88.14l-6.49-2-.21,6.78A1,1,0,0,1,96.73,44.29Z"/><path class="cls-2" d="M124.06,137a.93.93,0,0,1-.48-.12,1,1,0,0,1-.4-1.36l1.15-2.08a1,1,0,0,1,.73-.5,1,1,0,0,1,.84.27l.76.74.52-.93a1,1,0,0,1,.72-.51,1,1,0,0,1,.85.27l1.7,1.65a1,1,0,0,1,0,1.42,1,1,0,0,1-1.41,0l-.77-.74-.51.93a1,1,0,0,1-.72.51,1.06,1.06,0,0,1-.85-.27l-.76-.74-.51.93A1,1,0,0,1,124.06,137Z"/><path class="cls-2" d="M227.93,21a1,1,0,0,1-.56-.18l-2.12-1.44a1,1,0,0,1-.44-.77,1.07,1.07,0,0,1,.35-.82l1-.81-1-.71a1,1,0,0,1-.09-1.58l1.95-1.67a1,1,0,0,1,1.3,1.52l-1,.82,1,.7a1,1,0,0,1,.43.77,1,1,0,0,1-.35.82l-.95.81,1,.71a1,1,0,0,1-.57,1.83Z"/><path class="cls-2" d="M248.06,260.91a1,1,0,0,1-.58-.18,1,1,0,0,1-.23-1.4l2.88-4a1,1,0,0,1,1.59-.05l2.29,2.82,2.12-2.95a1,1,0,0,1,.78-.42.94.94,0,0,1,.81.37l3.12,3.84a1,1,0,1,1-1.56,1.26L257,257.36l-2.11,2.95a1,1,0,0,1-.79.42,1,1,0,0,1-.8-.37l-2.3-2.82-2.12,3A1,1,0,0,1,248.06,260.91Z"/><path class="cls-2" d="M200.51,227.4a1,1,0,0,1-.43-1.91l1.36-.65-1-1.14a1,1,0,0,1-.23-.86,1,1,0,0,1,.55-.7l1.37-.65-1-1.15a1,1,0,0,1,1.51-1.31l1.85,2.13a1,1,0,0,1,.23.86,1,1,0,0,1-.55.7l-1.36.66,1,1.14a1,1,0,0,1,.22.86,1,1,0,0,1-.54.7l-2.55,1.22A1.08,1.08,0,0,1,200.51,227.4Z"/><path class="cls-2" d="M96.52,259.39a1,1,0,0,1-1-1l-.18-8.49-8.14,2.42a1,1,0,0,1-.87-.15,1,1,0,0,1-.42-.79l-.18-8.49-8.14,2.41a1,1,0,1,1-.57-1.91l9.4-2.8a1,1,0,0,1,.87.16,1,1,0,0,1,.41.78l.19,8.5L96,247.63a1,1,0,0,1,.87.15,1,1,0,0,1,.41.79l.21,9.8a1,1,0,0,1-1,1Z"/><path class="cls-2" d="M249.71,22.57a.89.89,0,0,1-.36-.07l-4.79-1.85a1,1,0,0,1-.44-1.52l2.27-3.07-3.56-1.38a1,1,0,0,1-.6-.65,1,1,0,0,1,.15-.88L245.43,9A1,1,0,0,1,247,10.22l-2.27,3.07,3.56,1.37a1,1,0,0,1,.6.66,1,1,0,0,1-.16.87l-2.26,3.07,3.56,1.38a1,1,0,0,1,.57,1.29A1,1,0,0,1,249.71,22.57Z"/><path class="cls-2" d="M117.08,192.8a1,1,0,0,1-.7-.29l-2.15-2.1a1,1,0,1,1,1.4-1.43l1.21,1.19.83-1.49a1,1,0,0,1,.73-.5,1,1,0,0,1,.84.27l1.22,1.2.83-1.49a1,1,0,0,1,1.75,1l-1.47,2.63A1,1,0,0,1,120,192l-1.22-1.19-.83,1.49a1,1,0,0,1-.73.5Z"/><path class="cls-2" d="M136,210a1,1,0,0,1-.55-.17l-7.23-4.84a1,1,0,0,1,1.12-1.66l6.13,4.11,2.34-7a1,1,0,0,1,.63-.63,1,1,0,0,1,.88.12l6.14,4.11,2.35-7a1,1,0,1,1,1.89.63L147,205.86a1,1,0,0,1-.62.62,1,1,0,0,1-.88-.11l-6.15-4.11-2.34,7a1,1,0,0,1-.62.63A1.26,1.26,0,0,1,136,210Z"/><path class="cls-2" d="M77,97.56a1,1,0,0,1-.59-.18L74.46,96a1,1,0,0,1,1.16-1.62l.84.6.36-1a1,1,0,0,1,.64-.61,1,1,0,0,1,.88.14l.84.6.36-1a1,1,0,0,1,1.88.69l-.82,2.2a1,1,0,0,1-.64.61,1,1,0,0,1-.87-.14l-.85-.6-.35,1a1,1,0,0,1-.65.61A1,1,0,0,1,77,97.56Z"/><path class="cls-2" d="M208.52,36.29a1,1,0,0,1-.64-.23,1,1,0,0,1-.13-1.41l2.59-3.12-3.7-1.67a1,1,0,0,1-.57-.69,1,1,0,0,1,.21-.86l2.59-3.13-3.7-1.67a1,1,0,0,1,.82-1.83l4.9,2.22a1,1,0,0,1,.35,1.55l-2.59,3.12,3.71,1.68a1,1,0,0,1,.56.68,1,1,0,0,1-.21.87l-3.42,4.13A1,1,0,0,1,208.52,36.29Z"/><path class="cls-2" d="M272.76,216.07a1,1,0,0,1-.35-.06,1,1,0,0,1-.61-.65l-1.21-4.06L267,213.54a1,1,0,0,1-.89.09,1,1,0,0,1-.6-.65l-1.58-5.31a1,1,0,0,1,1.92-.58l1.2,4.06,3.59-2.24a1,1,0,0,1,1.49.56l1.21,4.06,3.6-2.24A1,1,0,0,1,278,213l-4.7,2.93A1,1,0,0,1,272.76,216.07Z"/><path class="cls-2" d="M161.92,115a1,1,0,0,1-.34-.06l-1.86-.66a1,1,0,0,1,.68-1.89l.63.23.05-.66a1,1,0,0,1,1.33-.87l.63.23.05-.67a1,1,0,1,1,2,.16l-.16,2a1,1,0,0,1-1.33.86l-.63-.22-.05.66a1,1,0,0,1-.46.76A1,1,0,0,1,161.92,115Z"/><path class="cls-2" d="M257.15,281.1a1,1,0,0,1-.92-.62,1,1,0,0,1,.53-1.3l.67-.28-.44-.57a1,1,0,0,1-.18-.87,1,1,0,0,1,.58-.67l.67-.28-.45-.57a1,1,0,0,1,1.58-1.23l1.25,1.6a1,1,0,0,1,.18.87,1,1,0,0,1-.58.67l-.67.28.45.57a1,1,0,0,1,.17.87,1,1,0,0,1-.58.67l-1.88.78A.84.84,0,0,1,257.15,281.1Z"/><path class="cls-2" d="M98.79,114a1,1,0,0,1-.39-.08l-4.89-2.09a1,1,0,0,1-.58-.67,1,1,0,0,1,.19-.87l2.48-3.14-3.68-1.57a1,1,0,0,1-.58-.67,1,1,0,0,1,.19-.87l3.3-4.16a1,1,0,1,1,1.57,1.25l-2.49,3.13,3.68,1.57a1,1,0,0,1,.58.67,1,1,0,0,1-.19.87l-2.48,3.14,3.68,1.57a1,1,0,0,1-.39,1.92Z"/><path class="cls-2" d="M264.37,60.54a.9.9,0,0,1-.42-.1l-2.43-1.12a1,1,0,0,1-.34-1.56l.88-1-1.23-.58a1,1,0,0,1-.56-.69,1,1,0,0,1,.21-.86l1.73-2a1,1,0,0,1,1.53,1.3l-.88,1,1.23.58a1,1,0,0,1,.56.69,1,1,0,0,1-.22.86l-.88,1,1.24.57a1,1,0,0,1,.48,1.33A1,1,0,0,1,264.37,60.54Z"/><path class="cls-2" d="M111.26,152.41a1,1,0,0,1-.63-.23,1,1,0,0,1-.15-1.41l1-1.17-1.39-.61a1,1,0,0,1-.37-1.55l1-1.18-1.39-.61a1,1,0,1,1,.8-1.83l2.59,1.14a1,1,0,0,1,.57.68,1,1,0,0,1-.2.87l-1,1.18,1.39.61a1,1,0,0,1,.56.68,1,1,0,0,1-.19.86L112,152A1,1,0,0,1,111.26,152.41Z"/><path class="cls-2" d="M19.67,93.2a1,1,0,0,1-1-1l-.06-5.11-4.92,1.41a1,1,0,0,1-1.27-1l-.06-5.11L7.44,83.86a1,1,0,0,1-1.24-.69,1,1,0,0,1,.69-1.23l6.17-1.78a1.06,1.06,0,0,1,.88.16,1,1,0,0,1,.4.79l.06,5.12,4.92-1.41a1,1,0,0,1,1.27,1l.08,6.42a1,1,0,0,1-1,1Z"/><path class="cls-2" d="M7.81,108.86H7.66l-1.94-.28a1,1,0,0,1-.73-.51,1,1,0,0,1,0-.88l.26-.59-.64-.1a1,1,0,0,1-.77-1.39l.79-1.79a1,1,0,1,1,1.83.81l-.26.58.64.1a1,1,0,0,1,.73.5,1,1,0,0,1,0,.89l-.26.59.64.09a1,1,0,0,1-.14,2Z"/><path class="cls-2" d="M131.19,157.42a1,1,0,0,1-.38-.08l-5.47-2.23a1,1,0,0,1,.76-1.86l4.26,1.74.55-4.56a1,1,0,0,1,.48-.75,1,1,0,0,1,.89-.06l4.26,1.74.56-4.57a1,1,0,0,1,2,.24l-.71,5.87a1,1,0,0,1-1.37.81L132.74,152l-.55,4.57a1,1,0,0,1-.49.74A1,1,0,0,1,131.19,157.42Z"/><path class="cls-2" d="M275.67,100.93a1,1,0,0,1-.65-.24l-7.09-6.06a1,1,0,0,1-.35-.81,1,1,0,0,1,.44-.77l6.63-4.51-6.1-5.2a1.05,1.05,0,0,1-.35-.82,1,1,0,0,1,.44-.77l7.72-5.23a1,1,0,0,1,1.38.27,1,1,0,0,1-.26,1.39l-6.63,4.49,6.09,5.2a1,1,0,0,1,.35.82,1,1,0,0,1-.44.77L270.22,94l6.1,5.21a1,1,0,0,1-.65,1.76Z"/><path class="cls-2" d="M277.82,137a1,1,0,0,1-.8-.4l-1-1.38a1,1,0,0,1-.16-.87,1,1,0,0,1,.6-.65l.38-.15-.25-.33a1,1,0,0,1,.44-1.53l1.59-.63a1,1,0,0,1,.74,1.87l-.38.14.24.33a1,1,0,0,1,.16.87,1,1,0,0,1-.59.66l-.38.15.24.32a1,1,0,0,1-.2,1.4A1,1,0,0,1,277.82,137Z"/><path class="cls-2" d="M137,281.9a1,1,0,0,1-.72-.3l-2.88-2.93a1,1,0,0,1,1.43-1.4l2,2,1.41-2.42a1,1,0,0,1,1.58-.2l2,2,1.41-2.42a1,1,0,0,1,1.37-.37,1,1,0,0,1,.36,1.37l-2.07,3.56a1,1,0,0,1-1.57.2l-2-2-1.41,2.42a1,1,0,0,1-.74.49Z"/><path class="cls-2" d="M153.13,12a1,1,0,0,1-.83-.46l-.31-.46-.36.42a1,1,0,0,1-.83.33,1,1,0,0,1-.76-.45l-.31-.46-.36.41a1,1,0,1,1-1.5-1.32l1.23-1.4a1,1,0,0,1,.82-.33,1,1,0,0,1,.77.44l.3.47.37-.42a1,1,0,0,1,.82-.33,1,1,0,0,1,.77.45l1,1.56a1,1,0,0,1-.29,1.38A1,1,0,0,1,153.13,12Z"/><path class="cls-2" d="M209.58,125.72a1,1,0,0,1-.66-.25,1,1,0,0,1-.09-1.41l2.53-2.9-3.47-1.68a1,1,0,0,1-.54-.7,1,1,0,0,1,.23-.86l2.53-2.91-3.47-1.68a1,1,0,0,1,.87-1.8l4.66,2.25a1,1,0,0,1,.31,1.56l-2.54,2.91,3.48,1.68a1,1,0,0,1,.54.7,1,1,0,0,1-.23.86l-3.4,3.88A1,1,0,0,1,209.58,125.72Z"/><path class="cls-2" d="M57.7,147a1,1,0,0,1-.08-2l5.11-.38L61,139.74a1,1,0,0,1,.11-.88,1,1,0,0,1,.76-.45L67,138l-1.73-4.83a1,1,0,1,1,1.89-.67l2.16,6.07a1,1,0,0,1-.1.88,1,1,0,0,1-.77.45l-5.11.38,1.72,4.84a1,1,0,0,1-.87,1.33l-6.42.48Z"/><path class="cls-2" d="M22.83,68.43a1,1,0,0,1-.53-1.85l4.62-2.84L23,60a1,1,0,0,1-.31-.83,1,1,0,0,1,.47-.75l4.62-2.85-4-3.7a1,1,0,1,1,1.36-1.46l4.92,4.6a1,1,0,0,1,.31.83,1,1,0,0,1-.47.75l-4.62,2.84,4,3.7a1,1,0,0,1,.31.84,1,1,0,0,1-.47.75l-5.74,3.52A1,1,0,0,1,22.83,68.43Z"/><path class="cls-2" d="M111,13h-.14a1,1,0,0,1-.73-.5l-.55-1-.82.8a1,1,0,0,1-1.57-.24L106,9.87a1,1,0,1,1,1.75-1l.55,1,.82-.8a1,1,0,0,1,.84-.27,1,1,0,0,1,.73.5l.55,1,.82-.8a1,1,0,0,1,1.41,0,1,1,0,0,1,0,1.41l-1.75,1.72A1,1,0,0,1,111,13Z"/><path class="cls-2" d="M61.35,280.68a1.06,1.06,0,0,1-.54-.16,1,1,0,0,1-.3-1.38l2-3.16a1,1,0,0,1,.76-.45,1,1,0,0,1,.83.33l1.62,1.8,1.32-2a1,1,0,0,1,.76-.46,1,1,0,0,1,.82.33l2.51,2.78a1,1,0,0,1-1.49,1.34L68,277.8l-1.31,2.05a1,1,0,0,1-.76.45,1,1,0,0,1-.82-.32l-1.63-1.81-1.32,2.05A1,1,0,0,1,61.35,280.68Z"/><path class="cls-2" d="M276.55,281.17A1,1,0,0,1,276,281l-1.66-1.17a1,1,0,0,1-.43-.78,1,1,0,0,1,.36-.81l.56-.46-.59-.41a1,1,0,0,1-.06-1.59l1.56-1.3A1,1,0,0,1,277,276l-.56.45.59.42a1,1,0,0,1,.42.78,1,1,0,0,1-.36.81l-.55.46.59.41a1,1,0,0,1,.24,1.39A1,1,0,0,1,276.55,281.17Z"/><path class="cls-2" d="M245.93,210.28h-.09l-6.56-.61a1,1,0,0,1-.9-1.09,1,1,0,0,1,1.08-.9l5.26.48-.93-5.19a1,1,0,0,1,.25-.85,1,1,0,0,1,.83-.32l5.26.48-.93-5.2a1,1,0,0,1,.81-1.16,1,1,0,0,1,1.16.81l1.15,6.49a1,1,0,0,1-.24.85,1,1,0,0,1-.83.32l-5.26-.48.92,5.2a1,1,0,0,1-.24.85A1,1,0,0,1,245.93,210.28Z"/><path class="cls-2" d="M69.06,231.47a1.05,1.05,0,0,1-.58-.19l-2.67-1.89A1,1,0,1,1,67,227.76l1.61,1.13.67-1.85a1,1,0,0,1,1.52-.47l1.61,1.13.67-1.85a1,1,0,0,1,1.88.68l-1.12,3.09a1,1,0,0,1-.64.61,1,1,0,0,1-.88-.14L70.67,229,70,230.81a1,1,0,0,1-.64.61A1,1,0,0,1,69.06,231.47Z"/><path class="cls-2" d="M227.09,200.47a1,1,0,0,1-.69-.28L225.11,199a1,1,0,1,1,1.38-1.44l.34.32.22-.41a1,1,0,0,1,.73-.52,1,1,0,0,1,.85.27l.34.33.22-.42A1,1,0,0,1,231,198l-.85,1.57a1,1,0,0,1-.72.51,1,1,0,0,1-.85-.26l-.34-.33L228,200a1,1,0,0,1-.73.51Z"/><path class="cls-2" d="M30.19,180.19a1,1,0,0,1-.54-.16l-1.85-1.19a1,1,0,0,1-.45-.76,1,1,0,0,1,.33-.82l.65-.59-.74-.48a1,1,0,0,1-.13-1.58l1.64-1.47a1,1,0,0,1,1.33,1.49l-.65.59.74.48a1,1,0,0,1,.45.76,1,1,0,0,1-.33.82l-.65.59.74.48a1,1,0,0,1,.3,1.38A1,1,0,0,1,30.19,180.19Z"/><path class="cls-2" d="M275.34,62.21a1,1,0,0,1-.52-1.86l.68-.41-.58-.54a1,1,0,0,1-.31-.84,1,1,0,0,1,.48-.74l.68-.42-.58-.54a1,1,0,0,1,1.37-1.46l1.53,1.45a1,1,0,0,1-.17,1.58l-.67.41.57.55a1,1,0,0,1-.17,1.58l-1.79,1.09A1,1,0,0,1,275.34,62.21Z"/><path class="cls-2" d="M231.3,262.3a1,1,0,0,1-.3-2l1.45-.46-.83-1.28a1,1,0,0,1,.53-1.5l1.46-.46-.84-1.28a1,1,0,0,1,1.68-1.1l1.55,2.38a1,1,0,0,1,.1.88,1,1,0,0,1-.64.62l-1.45.47.83,1.28a1,1,0,0,1,.1.88,1,1,0,0,1-.63.62l-2.71.86A1,1,0,0,1,231.3,262.3Z"/><path class="cls-2" d="M40.34,73.07A1,1,0,0,1,40,71.14l5.71-2.34-3.78-4.89a1,1,0,0,1-.17-.87,1,1,0,0,1,.58-.67L48,60l-3.78-4.89a1,1,0,0,1,1.59-1.22l4.57,5.93A1,1,0,0,1,50,61.37l-5.71,2.35,3.77,4.89a1,1,0,0,1-.41,1.54L40.72,73A1.08,1.08,0,0,1,40.34,73.07Z"/><path class="cls-2" d="M276.94,118.22a1,1,0,0,1-.95-.71l-1-3.18-2.82,1.77a1,1,0,0,1-1.49-.56l-1-3.18-2.82,1.77a1,1,0,0,1-1.06-1.7l3.93-2.46a1,1,0,0,1,.88-.09,1,1,0,0,1,.61.64l1,3.19,2.81-1.77a1,1,0,0,1,1.49.56l1.34,4.44a1,1,0,0,1-.67,1.24A.92.92,0,0,1,276.94,118.22Z"/><path class="cls-2" d="M185.79,113.58a1,1,0,0,1-.65-.24l-3-2.62a1,1,0,1,1,1.31-1.5l2,1.75,1.16-2.4a1,1,0,0,1,.7-.54,1,1,0,0,1,.85.22l2,1.76,1.16-2.4a1,1,0,0,1,1.8.87l-1.73,3.58a1,1,0,0,1-1.56.32l-2-1.76-1.16,2.4a1,1,0,0,1-.7.54A.65.65,0,0,1,185.79,113.58Z"/><path class="cls-2" d="M155.5,229.61a.92.92,0,0,1-.36-.07,1,1,0,0,1-.6-.65l-.73-2.55-2.27,1.38a1,1,0,0,1-.88.07,1,1,0,0,1-.6-.65L149,223.33a1,1,0,0,1,.69-1.24,1,1,0,0,1,1.23.69l.73,2.55,2.27-1.38a1,1,0,0,1,.88-.08,1,1,0,0,1,.6.65l.73,2.56,2.27-1.38a1,1,0,1,1,1,1.7L156,229.47A1,1,0,0,1,155.5,229.61Z"/><path class="cls-2" d="M6.58,145.84A1,1,0,0,1,6,144l5.64-3.84-5.2-4.42a1.07,1.07,0,0,1-.35-.82,1,1,0,0,1,.44-.77l5.64-3.85L7,125.89a1,1,0,0,1,1.3-1.52l6.19,5.28a1,1,0,0,1-.08,1.59l-5.64,3.84,5.2,4.43a1,1,0,0,1,.35.81,1,1,0,0,1-.44.77l-6.73,4.58A1,1,0,0,1,6.58,145.84Z"/><path class="cls-2" d="M165.9,137.83h-.15a1,1,0,0,1-.84-1.14l.8-5.16a1,1,0,0,1,.51-.72,1,1,0,0,1,.89,0l3.56,1.6.6-3.86a1,1,0,0,1,1.4-.76l4.75,2.13a1,1,0,1,1-.81,1.82L173,130.1l-.59,3.86a1,1,0,0,1-1.4.76l-3.56-1.6-.6,3.86A1,1,0,0,1,165.9,137.83Z"/><path class="cls-2" d="M87.11,198.74a1,1,0,0,1-.53-1.84l4.07-2.56-3.54-3.25a1,1,0,0,1,.14-1.58L91.33,187l-3.55-3.26a1,1,0,1,1,1.36-1.47l4.51,4.14a1,1,0,0,1,.31.83,1,1,0,0,1-.46.75l-4.07,2.56L93,193.76a1,1,0,0,1,.32.82,1,1,0,0,1-.46.76l-5.19,3.25A1,1,0,0,1,87.11,198.74Z"/><path class="cls-2" d="M275.89,17.84a1,1,0,0,1-1-.77l-.93-4-3.62,2a1,1,0,0,1-.88,0,1,1,0,0,1-.57-.68l-.93-4-3.62,2a1,1,0,0,1-1-1.76L268.17,8a1,1,0,0,1,.89,0,1,1,0,0,1,.56.69l.94,4,3.62-2a1,1,0,0,1,.88,0,1,1,0,0,1,.57.68l1.23,5.28a1,1,0,0,1-.75,1.21Z"/><path class="cls-2" d="M160.13,53.14a1,1,0,0,1-.75-.34l-5.88-6.65a1,1,0,0,1,.09-1.41,1,1,0,0,1,1.41.09l5,5.67,4.14-6.33a1,1,0,0,1,.77-.45,1,1,0,0,1,.82.33l5,5.67,4.15-6.33a1,1,0,0,1,1.38-.29,1,1,0,0,1,.29,1.38l-4.86,7.43a1,1,0,0,1-.77.45,1,1,0,0,1-.82-.33l-5-5.67L161,52.69a1,1,0,0,1-.76.45Z"/><path class="cls-2" d="M74,167.49l-.24,0-6.25-1.54A1,1,0,0,1,68,164l5,1.23-.13-5.12a1,1,0,0,1,1.24-1l5,1.22L79,155.19a1,1,0,0,1,2-.05l.17,6.43a1,1,0,0,1-1.24,1l-5-1.23.14,5.12a1,1,0,0,1-1,1Z"/><path class="cls-2" d="M97,280.64a1,1,0,0,1-.83-.45L93.38,276,90.1,279.8a1,1,0,0,1-.82.35,1,1,0,0,1-.77-.45l-2.77-4.16-3.29,3.77A1,1,0,0,1,80.94,278l4.15-4.76a1,1,0,0,1,.82-.34,1,1,0,0,1,.76.44l2.78,4.16,3.28-3.77a1,1,0,0,1,.82-.34,1,1,0,0,1,.77.44l3.49,5.25a1,1,0,0,1-.28,1.39A1,1,0,0,1,97,280.64Z"/><path class="cls-2" d="M185.4,177.41a1,1,0,0,1-.58-.19,1,1,0,0,1-.23-1.4l1.27-1.76a1,1,0,0,1,.78-.42,1,1,0,0,1,.81.37l.54.67.51-.7a1,1,0,0,1,1.59,0l1.36,1.69a1,1,0,1,1-1.55,1.26l-.54-.67-.51.7a1,1,0,0,1-.78.42,1,1,0,0,1-.81-.37l-.54-.67-.51.7A1,1,0,0,1,185.4,177.41Z"/><path class="cls-2" d="M234,161.48a1.09,1.09,0,0,1-.26,0,1,1,0,0,1-.67-.59l-1.82-4.49-3.85,2.94a1,1,0,0,1-1.53-.42l-2.31-5.71a1,1,0,0,1,1.86-.75l1.81,4.49L231,154a1,1,0,0,1,.87-.17,1,1,0,0,1,.67.59l1.82,4.49,3.85-2.94a1,1,0,1,1,1.21,1.59l-4.89,3.74A1,1,0,0,1,234,161.48Z"/><path class="cls-2" d="M164.16,29.45a1,1,0,0,1-.39-1.92l6.33-2.72-4.3-5.38a1,1,0,0,1-.19-.87,1,1,0,0,1,.58-.67l6.33-2.73-4.3-5.39a1,1,0,0,1,.16-1.4,1,1,0,0,1,1.4.16l5.12,6.41a1,1,0,0,1,.19.87,1,1,0,0,1-.58.67l-6.33,2.72,4.3,5.39a1,1,0,0,1,.19.87,1,1,0,0,1-.58.67l-7.53,3.24A1.14,1.14,0,0,1,164.16,29.45Z"/><path class="cls-2" d="M217.23,140.73a1,1,0,0,1-.71-.29l-3.08-3.07a1,1,0,0,1,1.42-1.42l2.14,2.14,1.5-2.63a1,1,0,0,1,.74-.5,1,1,0,0,1,.84.28l2.15,2.14,1.5-2.64a1,1,0,0,1,1.74,1l-2.15,3.78a1,1,0,0,1-.73.5,1,1,0,0,1-.85-.28l-2.15-2.15-1.49,2.64a1,1,0,0,1-.74.5Z"/><path class="cls-2" d="M42.59,106.17a1,1,0,0,1-.73-.33L37,100.49a1,1,0,0,1,.28-1.56l5.29-2.72-4-4.38a1,1,0,0,1-.25-.85,1,1,0,0,1,.53-.72L45.23,87a1,1,0,1,1,.91,1.78l-5.28,2.71,4,4.38a1,1,0,0,1-.28,1.57l-5.29,2.72,4,4.38a1,1,0,0,1-.74,1.68Z"/><path class="cls-2" d="M46,282.15a1,1,0,0,1-.83-.44l-3.66-5.45-4.28,5a1,1,0,0,1-.81.35,1,1,0,0,1-.77-.44L32,275.7l-4.28,5a1,1,0,0,1-1.52-1.31l5.14-6a1,1,0,0,1,1.59.09l3.66,5.45,4.28-5a1,1,0,0,1,1.59.09l4.39,6.53A1,1,0,0,1,46.6,282,1,1,0,0,1,46,282.15Z"/><path class="cls-2" d="M114.6,57.35a1,1,0,0,1-.87-.52l-1.49-2.7a1,1,0,0,1,0-.88,1,1,0,0,1,.68-.57l1.72-.42-.85-1.54a1,1,0,0,1,0-.89,1,1,0,0,1,.68-.57l3-.72a1,1,0,0,1,.46,2l-1.71.41.85,1.55a1,1,0,0,1,0,.88,1,1,0,0,1-.68.57l-1.72.42.85,1.55a1,1,0,0,1-.88,1.48Z"/><path class="cls-2" d="M118.12,115.21a1,1,0,0,1-.73-.31,1,1,0,0,1,0-1.41l4.25-4.07-5-3a1,1,0,0,1-.48-.74,1,1,0,0,1,.3-.84l4.25-4.07-5-3a1,1,0,1,1,1-1.72l6.18,3.69a1,1,0,0,1,.18,1.58l-4.25,4.08,5,3a1,1,0,0,1,.48.75,1,1,0,0,1-.3.83l-5.19,5A1,1,0,0,1,118.12,115.21Z"/><path class="cls-2" d="M240.26,184.21h-.18a1,1,0,0,1-.71-.53l-3.53-6.86L230.16,182a1,1,0,0,1-.85.24,1,1,0,0,1-.72-.52l-4.11-8a1,1,0,0,1,1.78-.91l3.52,6.86,5.68-5.21a1,1,0,0,1,.85-.25,1,1,0,0,1,.71.53l3.53,6.86,5.68-5.21a1,1,0,0,1,1.42.07,1,1,0,0,1-.07,1.41L240.93,184A1,1,0,0,1,240.26,184.21Z"/><path class="cls-2" d="M142.46,184a.84.84,0,0,1-.27,0l-4.37-1.24a1,1,0,0,1-.65-.59,1,1,0,0,1,.07-.89l1.67-2.76-3.1-.88a1,1,0,0,1-.66-.59,1,1,0,0,1,.08-.89l2.35-3.87a1,1,0,1,1,1.71,1L137.62,176l3.1.88a1,1,0,0,1,.66.59,1,1,0,0,1-.08.89l-1.67,2.76,3.1.88a1,1,0,0,1,.69,1.24A1,1,0,0,1,142.46,184Z"/><path class="cls-2" d="M184.41,69.76a.92.92,0,0,1-.29,0L182,69.07a1,1,0,1,1,.57-1.91l.9.27,0-1a1,1,0,0,1,1.29-.93l.91.27,0-.95a1,1,0,0,1,1-1h0a1,1,0,0,1,1,1l0,2.26a1,1,0,0,1-.41.79,1.05,1.05,0,0,1-.88.15l-.9-.27,0,.94a1,1,0,0,1-.42.79A.94.94,0,0,1,184.41,69.76Z"/><path class="cls-2" d="M106,86.71a.93.93,0,0,1-.29,0l-7.08-2.2a1,1,0,0,1,.59-1.91l5.83,1.81.2-6.1a1,1,0,0,1,.42-.78,1,1,0,0,1,.88-.14l5.83,1.81.21-6.1a1,1,0,0,1,1-1,1,1,0,0,1,1,1l-.25,7.41a1,1,0,0,1-.42.78,1,1,0,0,1-.88.14l-5.83-1.81-.21,6.1a1,1,0,0,1-.42.78A.94.94,0,0,1,106,86.71Z"/><path class="cls-2" d="M154.25,163.51h-.12l-5.65-.66a1,1,0,1,1,.23-2l4.35.51-.65-4.33a1,1,0,0,1,.27-.85,1,1,0,0,1,.83-.3l4.36.52-.65-4.34a1,1,0,1,1,2-.3l.86,5.63a1.06,1.06,0,0,1-.27.85,1,1,0,0,1-.84.3l-4.36-.52.66,4.34a1,1,0,0,1-.27.85A1,1,0,0,1,154.25,163.51Z"/><path class="cls-2" d="M238,78a1,1,0,0,1-1-.94l-.35-6.23-5.91,2a1,1,0,0,1-1.32-.89l-.35-6.24-5.92,2a1,1,0,0,1-.64-1.9l7.16-2.4a1,1,0,0,1,1.32.89l.35,6.23,5.92-2a1,1,0,0,1,.88.12,1,1,0,0,1,.43.77l.43,7.54a1,1,0,0,1-.95,1Z"/><path class="cls-2" d="M55.1,248.5a1.21,1.21,0,0,1-.37-.07,1,1,0,0,1-.55-1.31l1.06-2.62a1,1,0,0,1,1.53-.42L58,245l.57-1.41a1,1,0,0,1,1.53-.42l2.25,1.71a1,1,0,0,1-1.21,1.59l-1.21-.92L59.34,247a1,1,0,0,1-.66.59,1,1,0,0,1-.87-.17l-1.21-.92L56,247.87A1,1,0,0,1,55.1,248.5Z"/><path class="cls-2" d="M229.3,243.2a1,1,0,0,1-1-.84,1,1,0,0,1,.84-1.15l7.62-1.18-3.16-7a1,1,0,0,1,.76-1.4L242,230.4l-3.16-7.05a1,1,0,1,1,1.82-.82l3.7,8.24a1,1,0,0,1,0,.89,1,1,0,0,1-.73.51L236,233.36l3.17,7a1,1,0,0,1,0,.88,1,1,0,0,1-.72.51l-8.93,1.39Z"/><path class="cls-2" d="M173.18,95.93h0l-5,0a1,1,0,0,1-1-1,1,1,0,0,1,1-1h0l3.75,0-1-3.61a1,1,0,0,1,.18-.87,1,1,0,0,1,.8-.39l3.74,0-1-3.62a1,1,0,0,1,.71-1.23,1,1,0,0,1,1.22.71l1.3,4.89a1,1,0,0,1-.17.87,1,1,0,0,1-.8.39l-3.75,0,1,3.62a1,1,0,0,1-1,1.25Z"/><path class="cls-2" d="M275,155.08a1,1,0,0,1-.22-2l.52-.12-.25-.47a1,1,0,0,1,0-.89,1,1,0,0,1,.69-.56l.52-.12-.25-.48a1,1,0,1,1,1.76-.94l.87,1.63a1,1,0,0,1,0,.88,1,1,0,0,1-.68.56l-.53.12.26.48a1,1,0,0,1,0,.88,1,1,0,0,1-.69.57l-1.8.41Z"/><path class="cls-2" d="M35.92,37.4a1,1,0,0,1-.74-.32l-6.6-7.19a1,1,0,0,1,1.48-1.35l5.71,6.22,4.48-7.16a1,1,0,0,1,.76-.47,1,1,0,0,1,.83.32l5.72,6.22,4.49-7.16a1,1,0,1,1,1.69,1.06l-5.18,8.27a1,1,0,0,1-.76.47A1,1,0,0,1,47,36l-5.73-6.22-4.48,7.16a1,1,0,0,1-.76.47Z"/><path class="cls-2" d="M144.19,244.52l-.16,0a1,1,0,0,1-.83-1.14l.26-1.62A1,1,0,0,1,144,241a1,1,0,0,1,.89,0l.29.13,0-.32a1,1,0,0,1,.52-.72,1,1,0,0,1,.88,0l1.49.67a1,1,0,1,1-.82,1.82l-.3-.13-.05.32a1,1,0,0,1-.51.72,1,1,0,0,1-.89,0l-.29-.13-.06.32A1,1,0,0,1,144.19,244.52Z"/><path class="cls-2" d="M133.1,87.54h0a1,1,0,0,1-1-1l0-.48-.46.11a1,1,0,0,1-.86-.21,1,1,0,0,1-.36-.81l0-.48-.47.1a1,1,0,0,1-.44-2l1.75-.39a1,1,0,0,1,.86.21,1,1,0,0,1,.36.81l0,.48.46-.11a1,1,0,0,1,1.22,1l-.08,1.79A1,1,0,0,1,133.1,87.54Z"/><path class="cls-2" d="M8.44,219.67A1,1,0,0,1,7.71,218l2-2.14L7.1,214.51a1,1,0,0,1-.53-.71,1,1,0,0,1,.25-.85l2-2.15-2.6-1.34a1,1,0,0,1,.92-1.78l3.76,1.95a1,1,0,0,1,.27,1.56l-2,2.15,2.59,1.34a1,1,0,0,1,.52.71,1,1,0,0,1-.25.85l-2.86,3.11A1,1,0,0,1,8.44,219.67Z"/><path class="cls-2" d="M278.85,40.94a1,1,0,0,1-.85-.47l-4-6.37L269,39.62a1,1,0,0,1-.83.31,1,1,0,0,1-.76-.46l-4-6.36-5.09,5.51a1,1,0,0,1-1.47-1.36l6-6.47a1,1,0,0,1,1.58.14l4,6.37,5.08-5.52a1,1,0,0,1,.83-.31,1,1,0,0,1,.75.46l4.67,7.48a1,1,0,0,1-.32,1.38A1,1,0,0,1,278.85,40.94Z"/><path class="cls-2" d="M10.58,173.7a1,1,0,0,1-.81-.42l-3.29-4.54a1,1,0,0,1-.15-.88,1,1,0,0,1,.61-.65l4-1.51-2.52-3.48a1,1,0,0,1-.15-.88,1,1,0,0,1,.61-.65l5.25-2a1,1,0,0,1,1.29.59,1,1,0,0,1-.59,1.28l-4,1.51,2.52,3.49a1,1,0,0,1,.15.87,1,1,0,0,1-.61.65l-4,1.52,2.52,3.48a1,1,0,0,1-.81,1.59Z"/><path class="cls-2" d="M181.77,239.05a1,1,0,0,1-.82-.43l-4-5.84a1,1,0,0,1-.13-.88,1,1,0,0,1,.62-.64l5.46-1.9-3.28-4.76a1,1,0,0,1-.12-.88,1,1,0,0,1,.62-.63l6.69-2.34a1,1,0,0,1,1.28.62,1,1,0,0,1-.62,1.27l-5.46,1.9,3.28,4.76a1,1,0,0,1,.13.88,1,1,0,0,1-.62.64l-5.46,1.9,3.28,4.77a1,1,0,0,1-.26,1.39A1,1,0,0,1,181.77,239.05Z"/><path class="cls-2" d="M138.14,122.44a1,1,0,0,1-.24,0l-5.21-1.27a1,1,0,1,1,.47-1.94l3.94,1L137,116.1a1,1,0,0,1,.37-.81,1,1,0,0,1,.87-.19l3.95,1-.12-4.06a1,1,0,0,1,1-1,1,1,0,0,1,1,1l.15,5.37a1,1,0,0,1-1.23,1l-3.95-1,.12,4.06a1,1,0,0,1-1,1Z"/><path class="cls-2" d="M209.89,177.44a1.09,1.09,0,0,1-.39-.08l-1.93-.83a1,1,0,1,1,.78-1.84l.73.31.1-.78a1,1,0,0,1,.5-.74,1,1,0,0,1,.88,0l.73.31.11-.79a1,1,0,1,1,2,.27l-.28,2.08a1,1,0,0,1-.49.74,1,1,0,0,1-.89.05l-.73-.31-.11.79a1,1,0,0,1-.49.73A1,1,0,0,1,209.89,177.44Z"/><path class="cls-2" d="M56.74,216.35a1,1,0,0,1-.45-.11,1,1,0,0,1-.44-1.35L60,206.78a1,1,0,0,1,.71-.54,1,1,0,0,1,.86.25l5.77,5.23,3.52-6.94a1,1,0,0,1,1.57-.29l6.73,6.12a1,1,0,0,1-1.34,1.48L72,206.85l-3.52,7a1,1,0,0,1-.71.53,1,1,0,0,1-.86-.24l-5.77-5.24-3.53,7A1,1,0,0,1,56.74,216.35Z"/><path class="cls-2" d="M118.7,281.47a1,1,0,0,1-1-.75l-1-3.75-3.36,1.94a1,1,0,0,1-.88.06,1,1,0,0,1-.59-.67l-1-3.76-3.36,1.95a1,1,0,1,1-1-1.73l4.5-2.6a1,1,0,0,1,.88-.06,1,1,0,0,1,.59.67l1,3.76,3.37-1.95a1,1,0,0,1,1.46.61l1.32,5a1,1,0,0,1-.71,1.23Z"/><path class="cls-2" d="M40.5,132.71a.91.91,0,0,1-.43-.1l-6.51-3.11a1,1,0,1,1,.86-1.8l5.33,2.54,1-5.81a1,1,0,0,1,1.42-.73l5.33,2.55,1.05-5.82a1,1,0,1,1,2,.36l-1.28,7.1a1,1,0,0,1-1.42.73l-5.33-2.55-1.05,5.82a1,1,0,0,1-.52.71A1,1,0,0,1,40.5,132.71Z"/><path class="cls-2" d="M144.68,36.17a1,1,0,0,1-.8-.4,1,1,0,0,1,.2-1.4l2.8-2.07-2.74-2.16a1,1,0,0,1-.38-.8,1,1,0,0,1,.4-.79L147,26.48l-2.75-2.16a1,1,0,0,1,1.24-1.57l3.77,3a1,1,0,0,1,.39.8,1,1,0,0,1-.41.79l-2.8,2.08,2.74,2.15a1,1,0,0,1,.38.8,1,1,0,0,1-.4.79L145.27,36A1,1,0,0,1,144.68,36.17Z"/><path class="cls-2" d="M247.08,145.34a1,1,0,0,1-.34-.06l-4.57-1.68a1,1,0,0,1-.61-.64,1,1,0,0,1,.14-.87l2.06-2.9L240.42,138a1,1,0,0,1-.47-1.52l2.82-4a1,1,0,0,1,1.39-.23,1,1,0,0,1,.24,1.39l-2.06,2.89,3.33,1.22a1,1,0,0,1,.62.64,1,1,0,0,1-.14.88l-2.06,2.9,3.34,1.22a1,1,0,0,1-.35,1.94Z"/><path class="cls-2" d="M242.61,281.46h-.16l-2.53-.42a1,1,0,0,1-.72-.52,1,1,0,0,1,0-.88l.52-1.14-1.23-.21a1,1,0,0,1-.72-.51,1,1,0,0,1,0-.89l1.07-2.33a1,1,0,1,1,1.82.84l-.52,1.13,1.23.21a1,1,0,0,1,.72.51,1,1,0,0,1,0,.89l-.52,1.14,1.23.2a1,1,0,0,1-.16,2Z"/><path class="cls-2" d="M248.07,112.22a1,1,0,0,1-.82-.43l-5.81-8.23a1,1,0,0,1-.13-.88,1,1,0,0,1,.61-.64l8.24-3-5-7.16A1,1,0,0,1,245,91a1,1,0,0,1,.61-.64L255.06,87a1,1,0,0,1,.68,1.88l-8.24,3L252.55,99a1,1,0,0,1,.14.87,1,1,0,0,1-.61.64l-8.25,3,5,7.16a1,1,0,0,1-.24,1.39A.93.93,0,0,1,248.07,112.22Z"/><path class="cls-2" d="M223.25,221.91h0a1,1,0,0,1-1-1v-2.63l-2.55.69a1,1,0,0,1-1.26-1v-2.64l-2.55.7a1,1,0,0,1-.53-1.93l3.81-1a1,1,0,0,1,.87.17,1,1,0,0,1,.4.79v2.64L223,216a1,1,0,0,1,1.27,1v3.94A1,1,0,0,1,223.25,221.91Z"/><path class="cls-2" d="M7.32,16.59a1,1,0,0,1-.67-.26L3.38,13.4a1,1,0,0,1,1.34-1.49L7,14l1.38-2.75a1,1,0,0,1,.7-.54,1,1,0,0,1,.86.24L12.24,13l1.38-2.76a1,1,0,0,1,1.79.9l-2,3.92a1,1,0,0,1-.7.54,1,1,0,0,1-.86-.24L9.59,13.28,8.21,16a1,1,0,0,1-.71.53Z"/><path class="cls-2" d="M220.67,54.45a1,1,0,0,1-1-.78l-1.75-7.79a1,1,0,0,1,.21-.86,1,1,0,0,1,.81-.36l6.66.31-1.46-6.5a1,1,0,0,1,1-1.22l8,.37a1,1,0,0,1,.95,1,1,1,0,0,1-1,1l-6.65-.31,1.46,6.51a1,1,0,0,1-1,1.22l-6.66-.31,1.46,6.51a1,1,0,0,1-.75,1.19Z"/><path class="cls-2" d="M166.13,192.22a1,1,0,0,1-.4-.08,1,1,0,0,1-.52-1.32l1.91-4.34-4.7-.69a1,1,0,0,1-.73-.5,1,1,0,0,1,0-.89l1.9-4.35-4.7-.69a1,1,0,0,1,.29-2l6,.88a1,1,0,0,1,.73.5,1,1,0,0,1,0,.89L164,184l4.69.69a1,1,0,0,1,.73.5,1,1,0,0,1,0,.89l-2.43,5.54A1,1,0,0,1,166.13,192.22Z"/><path class="cls-2" d="M72.87,264.56a1,1,0,0,1-.66-.25L69.56,262a1,1,0,0,1-.1-1.41,1,1,0,0,1,1.42-.09l1.66,1.46,1-2a1,1,0,0,1,1.55-.31l1.68,1.47,1-2a1,1,0,1,1,1.8.88L78,263.15a1,1,0,0,1-.7.54,1,1,0,0,1-.86-.23L74.74,262l-1,2a1,1,0,0,1-.7.54Z"/><path class="cls-2" d="M49.82,178a.62.62,0,0,1-.19,0l-3.6-.7a1,1,0,0,1-.79-1.18,1,1,0,0,1,1.17-.78l2.32.45-.18-2.35a1,1,0,0,1,.33-.83,1,1,0,0,1,.86-.23l2.32.45-.18-2.35a1,1,0,0,1,.93-1.07,1,1,0,0,1,1.07.92l.27,3.66A1,1,0,0,1,53,175l-2.32-.46.18,2.36a1,1,0,0,1-.33.82A1,1,0,0,1,49.82,178Z"/><path class="cls-2" d="M273.75,260.6a1,1,0,0,1-.44-1.9l1.48-.72-1.08-1.24a1,1,0,0,1-.24-.85,1,1,0,0,1,.55-.71l1.48-.72-1.09-1.24a1,1,0,0,1,1.5-1.32l1.95,2.22a1,1,0,0,1,.23.86,1,1,0,0,1-.54.7l-1.48.72,1.09,1.24a1,1,0,0,1,.23.86,1,1,0,0,1-.54.7l-2.66,1.3A1,1,0,0,1,273.75,260.6Z"/><path class="cls-2" d="M140.12,71.21a1,1,0,0,1-.53-.14l-7.87-4.85a1.07,1.07,0,0,1-.47-.76,1,1,0,0,1,.32-.83l5.79-5.41-6.75-4.16a1,1,0,0,1-.47-.75,1,1,0,0,1,.31-.83l6.76-6.3a1,1,0,0,1,1.36,1.46l-5.79,5.41,6.75,4.15a1,1,0,0,1,.16,1.59l-5.8,5.41,6.75,4.16a1,1,0,0,1,.33,1.38A1,1,0,0,1,140.12,71.21Z"/><path class="cls-2" d="M162.08,258a1,1,0,0,1-.16-2l3.7-.62L164,251.94a1,1,0,0,1,0-.89,1.07,1.07,0,0,1,.72-.52l3.71-.62-1.58-3.41a1,1,0,1,1,1.82-.84l2.13,4.6a1,1,0,0,1,0,.89,1.07,1.07,0,0,1-.72.52l-3.71.62L168,255.7a1,1,0,0,1-.75,1.41l-5,.83Z"/><path class="cls-2" d="M270.47,194.55a1,1,0,0,1-1-1l-.06-8.38-8.06,2.27a1.06,1.06,0,0,1-.88-.16,1,1,0,0,1-.39-.8l-.07-9.68a1,1,0,0,1,1-1h0a1,1,0,0,1,1,1l.06,8.37,8.06-2.27a1,1,0,0,1,.87.16,1,1,0,0,1,.4.79l.06,8.38,8.07-2.27a1,1,0,0,1,.54,1.92l-9.33,2.63A.84.84,0,0,1,270.47,194.55Z"/><path class="cls-2" d="M11.2,279.5a1,1,0,0,1-.83-.44L6,272.6a1,1,0,0,1,.51-1.5L12.65,269,9,263.65a1,1,0,0,1,.51-1.51l7.37-2.5a1,1,0,0,1,1.27.63,1,1,0,0,1-.63,1.27l-6.13,2.07L15,269a1,1,0,0,1,.12.88,1,1,0,0,1-.63.62L8.4,272.57,12,277.94a1,1,0,0,1-.26,1.39A1.07,1.07,0,0,1,11.2,279.5Z"/><path class="cls-2" d="M67.73,62.25a1,1,0,0,1-.49-.13,1,1,0,0,1-.37-1.37l3.18-5.53-6.19-1.6a1,1,0,0,1-.62-1.47l3.18-5.55L60.23,45a1,1,0,1,1,.51-1.93L68.19,45a1,1,0,0,1,.67.58,1,1,0,0,1,0,.88L65.63,52l6.19,1.6a1,1,0,0,1,.62,1.46L68.6,61.75A1,1,0,0,1,67.73,62.25Z"/><path class="cls-2" d="M194,203.07a1,1,0,0,1-.65-.24l-7.62-6.53a1,1,0,0,1,1.3-1.52l6.62,5.68,3.73-7.89a1,1,0,0,1,.69-.55,1,1,0,0,1,.86.22l6.63,5.67L209.3,190a1,1,0,1,1,1.81.85L206.82,200a1,1,0,0,1-.7.55.94.94,0,0,1-.85-.22l-6.63-5.67-3.73,7.89a1,1,0,0,1-.69.55Z"/><path class="cls-2" d="M102.48,174.69a1,1,0,0,1-.76-.35L96,167.56a1,1,0,0,1,1.52-1.3l4.92,5.79,4.28-6.28a1,1,0,0,1,.77-.44,1,1,0,0,1,.81.35l4.93,5.78,4.28-6.28a1,1,0,0,1,1.39-.26,1,1,0,0,1,.26,1.38l-5,7.37a1,1,0,0,1-.77.44,1.05,1.05,0,0,1-.82-.35L107.58,168l-4.27,6.28a1,1,0,0,1-.77.44Z"/><path class="cls-2" d="M192.39,134.92a1,1,0,0,1-.33-1.95l1.19-.41-.71-1a1,1,0,0,1-.13-.88A1,1,0,0,1,193,130l1.19-.42-.71-1a1,1,0,1,1,1.64-1.13l1.46,2.12a1,1,0,0,1,.13.88,1,1,0,0,1-.62.63l-1.19.42.71,1a1,1,0,0,1,.13.87,1,1,0,0,1-.62.64l-2.43.84A1,1,0,0,1,192.39,134.92Z"/><path class="cls-2" d="M84.3,80.3a.84.84,0,0,1-.35-.07,1,1,0,0,1-.58-1.29l.7-1.85-2-.18a1,1,0,0,1-.75-.47,1,1,0,0,1-.09-.88L82,73.71l-2-.19a1,1,0,0,1,.19-2l3.27.32a1,1,0,0,1,.84,1.35L83.6,75l2,.19a1,1,0,0,1,.84,1.35l-1.17,3.07A1,1,0,0,1,84.3,80.3Z"/><path class="cls-2" d="M145.1,264.3a1,1,0,0,1-.83-.44l-4.56-6.8-5.35,6.2a1,1,0,0,1-.82.34,1,1,0,0,1-.77-.44l-4.56-6.79-5.36,6.19a1,1,0,1,1-1.51-1.3l6.21-7.19a1,1,0,0,1,.82-.35,1,1,0,0,1,.77.44l4.56,6.8,5.35-6.2a1,1,0,0,1,.82-.34,1,1,0,0,1,.77.44l5.29,7.88a1,1,0,0,1-.28,1.39A.94.94,0,0,1,145.1,264.3Z"/><path class="cls-2" d="M81.45,41a1,1,0,0,1-1-.8l-.33-1.66a1,1,0,0,1,.23-.86,1,1,0,0,1,.82-.34l.38,0-.08-.38a1,1,0,0,1,.23-.85,1,1,0,0,1,.82-.34l1.69.12a1,1,0,1,1-.14,2l-.38,0,.08.37a1,1,0,0,1-.23.86,1,1,0,0,1-.82.33l-.38,0,.07.37a1,1,0,0,1-.78,1.18Z"/><path class="cls-2" d="M187.17,17.3a1,1,0,0,1-.59-1.8l.83-.61-.81-.64a1,1,0,0,1-.38-.8,1,1,0,0,1,.4-.79l.84-.62-.82-.64a1,1,0,0,1-.16-1.4,1,1,0,0,1,1.4-.17l1.84,1.45a1,1,0,0,1,.38.81,1,1,0,0,1-.4.78l-.83.62.81.64a1,1,0,0,1,0,1.59l-1.89,1.39A1,1,0,0,1,187.17,17.3Z"/><path class="cls-2" d="M97.09,225.94h0l-3.39-.1a1,1,0,0,1-.79-.42,1,1,0,0,1-.14-.87l.61-2-2.08-.07a1,1,0,0,1-.78-.41,1,1,0,0,1-.14-.88l1-3.24a1,1,0,0,1,1.24-.66,1,1,0,0,1,.67,1.25l-.61,2,2.07.07a1,1,0,0,1,.79.42,1,1,0,0,1,.14.87l-.61,2,2.08.06a1,1,0,0,1,1,1A1,1,0,0,1,97.09,225.94Z"/><path class="cls-2" d="M219.47,279.55h-.12a1,1,0,0,1-.74-.48l-2.49-4.17-3.37,3.49a1,1,0,0,1-.83.3,1,1,0,0,1-.75-.48L208,272.9a1,1,0,0,1,.35-1.37,1,1,0,0,1,1.37.35l2.48,4.17,3.37-3.5a1,1,0,0,1,1.58.19l2.48,4.17,3.38-3.5a1,1,0,0,1,1.44,1.39l-4.28,4.44A1,1,0,0,1,219.47,279.55Z"/><path class="cls-2" d="M12.31,243.25a1,1,0,0,1-.38-.07L4.11,240a1,1,0,1,1,.76-1.85l6.6,2.69.85-7.08a1,1,0,0,1,1.37-.81l6.61,2.69.85-7.09a1,1,0,0,1,2,.24l-1,8.39a1,1,0,0,1-.48.74,1,1,0,0,1-.89.07l-6.61-2.69-.85,7.08a1,1,0,0,1-.48.75A1,1,0,0,1,12.31,243.25Z"/><path class="cls-2" d="M34.16,216.63a1,1,0,0,1-.94-.67L30,206.6a1,1,0,0,1,.11-.88,1,1,0,0,1,.77-.44l8.57-.58-2.81-8.11a1,1,0,0,1,.11-.88,1,1,0,0,1,.76-.45l9.88-.65a1,1,0,1,1,.13,2l-8.56.57,2.81,8.11a1,1,0,0,1-.11.89,1,1,0,0,1-.77.44l-8.57.57,2.82,8.12a1,1,0,0,1-.62,1.28A1.26,1.26,0,0,1,34.16,216.63Z"/><path class="cls-2" d="M233,120a1,1,0,0,1-1-.83l-.23-1.31-1.21.57a1,1,0,0,1-1.42-.73l-.23-1.32-1.21.58a1,1,0,0,1-1.33-.48,1,1,0,0,1,.47-1.33l2.4-1.13a1,1,0,0,1,.88,0,1,1,0,0,1,.53.71l.23,1.32,1.21-.57a1,1,0,0,1,1.42.73l.46,2.61a1,1,0,0,1-.81,1.15Z"/><path class="cls-2" d="M200,163.26a1,1,0,0,1-.64-1.77l2.94-2.42-3.11-2.2a1,1,0,0,1-.42-.78,1,1,0,0,1,.36-.81l2.94-2.42-3.11-2.2a1,1,0,1,1,1.15-1.63l4.19,2.95a1,1,0,0,1,.06,1.59l-3,2.42,3.12,2.2a1,1,0,0,1,.06,1.59l-4,3.25A1,1,0,0,1,200,163.26Z"/><path class="cls-2" d="M164.08,279.76a1,1,0,0,1-.68-.27l-6.06-5.64a1,1,0,1,1,1.36-1.46l5.1,4.75L167,271a1,1,0,0,1,1.57-.27l5.11,4.75,3.23-6.18a1,1,0,0,1,1.77.92l-3.84,7.34a1,1,0,0,1-.72.53,1,1,0,0,1-.85-.26l-5.1-4.74L165,279.22a1,1,0,0,1-.72.53Z"/><path class="cls-2" d="M111.06,256.49a1,1,0,0,1-.82-.43l-1.68-2.4a1,1,0,0,1-.14-.87,1,1,0,0,1,.62-.64l1.52-.55-.93-1.33a1,1,0,0,1-.14-.87,1,1,0,0,1,.62-.64l2.76-1a1,1,0,1,1,.67,1.88l-1.52.55.93,1.32a1,1,0,0,1,.14.88,1,1,0,0,1-.62.64l-1.53.55.94,1.32a1,1,0,0,1-.25,1.4A1,1,0,0,1,111.06,256.49Z"/><path class="cls-2" d="M157,77.25a1,1,0,0,1-.57-.18l-6.27-4.43a1,1,0,0,1-.24-1.4,1,1,0,0,1,1.39-.24l5.2,3.68,2.17-6a1,1,0,0,1,1.51-.48l5.21,3.68,2.16-6a1,1,0,0,1,1.89.68l-2.62,7.22a1,1,0,0,1-.64.61,1,1,0,0,1-.88-.13l-5.2-3.68-2.17,6a1,1,0,0,1-.64.61A1,1,0,0,1,157,77.25Z"/><path class="cls-2" d="M109.87,209.79a1,1,0,0,1-.62-.22,1,1,0,0,1-.38-.8l0-1.83-1.78.44a1,1,0,0,1-1.24-1l.06-3.14a1,1,0,0,1,1-1h0a1,1,0,0,1,1,1l0,1.83,1.78-.44a1,1,0,0,1,1.24,1l0,1.83,1.77-.45a1,1,0,0,1,1.22.73,1,1,0,0,1-.73,1.21l-3,.77A1,1,0,0,1,109.87,209.79Z"/><path class="cls-2" d="M145.1,100.78a1,1,0,0,1-1-.93l-.29-4a1,1,0,0,1,1.2-1l2.68.54-.19-2.73a1,1,0,0,1,.34-.82,1,1,0,0,1,.85-.23l4,.8a1,1,0,0,1-.4,2l-2.67-.54.19,2.73a1,1,0,0,1-1.2,1L145.91,97l.19,2.73a1,1,0,0,1-.93,1.07Z"/><path class="cls-2" d="M58.13,12.59a1,1,0,0,1-.94-.65l-.29-.77-.66.49a1,1,0,0,1-.88.15,1,1,0,0,1-.65-.61l-.29-.76-.66.48A1,1,0,0,1,52.58,9.3L54.3,8.05a1,1,0,0,1,.88-.15,1,1,0,0,1,.65.6l.29.77.66-.48a1,1,0,0,1,.88-.16,1,1,0,0,1,.65.61l.75,2a1,1,0,0,1-.58,1.29A.91.91,0,0,1,58.13,12.59Z"/><path class="cls-2" d="M247.56,55.45a1,1,0,0,1-.62-.22l-4.19-3.38a1,1,0,0,1-.37-.8,1,1,0,0,1,.42-.79l3.29-2.37-3.16-2.55a1,1,0,0,1-.37-.81,1,1,0,0,1,.41-.78l4.36-3.14a1,1,0,1,1,1.17,1.62l-3.29,2.37,3.16,2.55a1,1,0,0,1,.37.81,1,1,0,0,1-.41.78L245,51.12l3.16,2.55a1,1,0,0,1-.63,1.78Z"/><path class="cls-2" d="M72.1,26.53h-.16a1,1,0,0,1-.82-1.15l1.59-9.67a1,1,0,0,1,.52-.72,1,1,0,0,1,.88,0l7.72,3.54,1.38-8.37a1,1,0,0,1,.51-.72,1,1,0,0,1,.89,0l8.9,4.09A1,1,0,0,1,94,14.79a1,1,0,0,1-1.32.49L85,11.74l-1.38,8.37a1,1,0,0,1-1.4.75l-7.72-3.54L73.09,25.7A1,1,0,0,1,72.1,26.53Z"/><path class="cls-2" d="M16.4,196.26a1,1,0,0,1-1-.73l-1-3.49-3.1,1.88a1,1,0,0,1-.89.08,1,1,0,0,1-.59-.66l-1-3.49-3.11,1.88a1,1,0,0,1-1.37-.33A1,1,0,0,1,4.71,190l4.23-2.56a1,1,0,0,1,.88-.08,1,1,0,0,1,.6.66l1,3.49,3.1-1.88a1,1,0,0,1,.89-.08,1,1,0,0,1,.6.66L17.36,195a1,1,0,0,1-.69,1.24A1.26,1.26,0,0,1,16.4,196.26Z"/><path class="cls-2" d="M38.76,238.31l-.17,0a1,1,0,0,1-.81-1.15l1-5.69a1,1,0,0,1,.52-.72,1,1,0,0,1,.89,0l4,1.89.75-4.39a1,1,0,0,1,.52-.72,1,1,0,0,1,.89,0l5.22,2.45a1,1,0,1,1-.84,1.81l-4-1.89L46,234.23a1,1,0,0,1-.53.72,1,1,0,0,1-.88,0l-4-1.89-.75,4.4A1,1,0,0,1,38.76,238.31Z"/><path class="cls-2" d="M202.67,53.39l-.18,0-8.35-1.52a1,1,0,0,1-.71-.53,1,1,0,0,1,0-.89l3.1-6.47-7.05-1.28a1,1,0,0,1-.73-1.42l3.68-7.64a1,1,0,0,1,1.8.86L191.11,41l7.06,1.28a1,1,0,0,1,.72,1.42l-3.1,6.47,7.06,1.28a1,1,0,0,1,.81,1.17A1,1,0,0,1,202.67,53.39Z"/><path class="cls-2" d="M198,89.39a1,1,0,0,1-1-.76L195.15,81a1,1,0,0,1,.19-.87,1,1,0,0,1,.81-.37l6.58.19-1.56-6.39a1,1,0,0,1,.2-.87,1,1,0,0,1,.8-.37l7.88.23a1,1,0,0,1,1,1,1,1,0,0,1-1,1l-6.58-.19L205,80.71a1,1,0,0,1-.19.87A1,1,0,0,1,204,82l-6.58-.19L199,88.15a1,1,0,0,1-.74,1.21A1,1,0,0,1,198,89.39Z"/><path class="cls-2" d="M269.53,238.79l-.19,0a1,1,0,0,1-.71-.54l-2.76-5.56-4.64,4.13a1,1,0,0,1-.85.24,1,1,0,0,1-.71-.54l-3.34-6.73a1,1,0,0,1,1.79-.89l2.76,5.56,4.63-4.14a1,1,0,0,1,.86-.23,1,1,0,0,1,.7.53l2.77,5.57,4.64-4.14a1,1,0,0,1,1.41.08,1,1,0,0,1-.08,1.42l-5.62,5A1,1,0,0,1,269.53,238.79Z"/><path class="cls-2" d="M94.18,153.09l-.16,0a1,1,0,0,1-.82-1.14l.09-.56-.57.06a1,1,0,0,1-.83-.3,1,1,0,0,1-.26-.85l.09-.56-.57.06a1,1,0,1,1-.21-2l1.86-.2a1,1,0,0,1,.84.31,1,1,0,0,1,.26.84l-.09.56.56-.06a1,1,0,0,1,.84.31,1,1,0,0,1,.26.84l-.3,1.86A1,1,0,0,1,94.18,153.09Z"/><path class="cls-2" d="M62.39,107.42a1,1,0,0,1-.37-.08,1,1,0,0,1-.56-1.3l.14-.34-.37,0a1,1,0,0,1-.74-.48,1,1,0,0,1-.07-.89l.14-.34-.37,0a1,1,0,1,1,.23-2l1.67.19a1,1,0,0,1,.81,1.37l-.14.34.37,0a1,1,0,0,1,.75.48,1,1,0,0,1,.07.89l-.63,1.56A1,1,0,0,1,62.39,107.42Z"/><path class="cls-2" d="M96.81,66.24h-.12a1,1,0,0,1-.88-1.11l.41-3.53-3.52.54a1,1,0,0,1-.84-.26,1,1,0,0,1-.31-.84L92,57.49,88.44,58a1,1,0,0,1-.31-2L93,55.32a1,1,0,0,1,1.14,1.1L93.69,60l3.52-.55a1,1,0,0,1,.84.27,1,1,0,0,1,.31.83l-.56,4.84A1,1,0,0,1,96.81,66.24Z"/><path class="cls-2" d="M30.71,16h-.09a1,1,0,0,1-.91-1.09L30,11.11a1,1,0,0,1,.47-.75,1,1,0,0,1,.88-.1l2.31.86.22-2.45a1,1,0,0,1,.46-.76,1,1,0,0,1,.88-.09l3.53,1.32A1,1,0,1,1,38.1,11l-2.31-.86-.22,2.45a.94.94,0,0,1-.46.76,1,1,0,0,1-.88.09l-2.31-.85-.22,2.45A1,1,0,0,1,30.71,16Z"/><path class="cls-2" d="M216.38,258.4a1.08,1.08,0,0,1-.57-.17l-6.95-4.74a1,1,0,0,1-.43-.78,1,1,0,0,1,.35-.81l5.41-4.61-5.88-4a1,1,0,0,1-.43-.77,1,1,0,0,1,.35-.82l6.41-5.45a1,1,0,0,1,1.3,1.53l-5.42,4.59,5.88,4a1,1,0,0,1,.43.77,1,1,0,0,1-.35.81l-5.41,4.61,5.87,4a1,1,0,0,1,.26,1.39A1,1,0,0,1,216.38,258.4Z"/><path class="cls-2" d="M75.73,120.33a1,1,0,0,1-.92-.6l-.38-.84-.71.59a1,1,0,0,1-1.55-.37l-.38-.84-.72.59a1,1,0,0,1-1.4-.14,1,1,0,0,1,.13-1.41l1.73-1.42a1,1,0,0,1,1.55.36l.38.85.72-.59a1,1,0,0,1,1.54.36l.92,2a1,1,0,0,1-.51,1.32A1,1,0,0,1,75.73,120.33Z"/><path class="cls-2" d="M62.62,84.09h0l-4.7-.15A1,1,0,1,1,58,82l3.39.1-.79-3.29a1,1,0,0,1,.19-.87,1,1,0,0,1,.81-.37l3.39.11-.8-3.3a1,1,0,0,1,.74-1.21,1,1,0,0,1,1.21.74l1.1,4.57a1,1,0,0,1-.2.87,1,1,0,0,1-.8.37l-3.39-.11.79,3.3a1,1,0,0,1-.19.86A1,1,0,0,1,62.62,84.09Z"/><path class="cls-2" d="M5.9,65.14a1,1,0,0,1-.45-1.9l1.33-.67-1-1.1a1.06,1.06,0,0,1-.24-.86,1,1,0,0,1,.53-.71l1.34-.67-1-1.11a1,1,0,0,1,1.48-1.34l1.88,2.08a1,1,0,0,1-.29,1.56l-1.33.68,1,1.1a1,1,0,0,1,.24.86,1,1,0,0,1-.53.71L6.35,65A1.06,1.06,0,0,1,5.9,65.14Z"/><path class="cls-2" d="M277.29,173.33a.84.84,0,0,1-.27,0,1,1,0,0,1-.7-1.22l.19-.67h-.7a1,1,0,0,1-.79-.4,1,1,0,0,1-.17-.87l.18-.67h-.7a1,1,0,0,1,0-2h2a1,1,0,0,1,.79.39,1,1,0,0,1,.17.87l-.18.68h.7a1,1,0,0,1,.79.4,1,1,0,0,1,.17.87l-.53,1.93A1,1,0,0,1,277.29,173.33Z"/><path class="cls-2" d="M263.1,146.9a1,1,0,0,1-.56-.18,1,1,0,0,1-.44-.77l-.1-1.84-1.75.58a1,1,0,0,1-.88-.12,1,1,0,0,1-.44-.77l-.17-3.15a1,1,0,0,1,.95-1.06,1,1,0,0,1,1.05.95l.1,1.84,1.75-.59a1,1,0,0,1,.88.13,1,1,0,0,1,.44.77l.1,1.84,1.75-.58a1,1,0,1,1,.64,1.89l-3,1A.87.87,0,0,1,263.1,146.9Z"/><path class="cls-2" d="M166.27,214a1,1,0,0,1-.62-.22l-4.7-3.76a1,1,0,0,1-.15-1.41,1,1,0,0,1,1.4-.15l3.67,2.94,1.87-4.32a1,1,0,0,1,.67-.58,1,1,0,0,1,.87.19l3.67,2.94,1.87-4.32a1,1,0,0,1,1.31-.52,1,1,0,0,1,.53,1.32l-2.39,5.52a1,1,0,0,1-.67.57,1,1,0,0,1-.87-.19l-3.68-2.94-1.86,4.32a1,1,0,0,1-.92.61Z"/><path class="cls-2" d="M216.7,100.42a1.13,1.13,0,0,1-.36-.06l-8.74-3.3a1,1,0,0,1,.71-1.87L215.82,98l.74-8a1,1,0,0,1,.47-.76,1,1,0,0,1,.88-.09L225.43,92l.75-8a1,1,0,1,1,2,.19l-.87,9.3a1,1,0,0,1-1.35.85l-7.52-2.83-.74,8a1,1,0,0,1-.46.75A1,1,0,0,1,216.7,100.42Z"/><path class="cls-2" d="M192.25,281h-.14l-2.74-.37a1,1,0,0,1,.27-2l1.45.2-.2-1.44a1,1,0,0,1,1.13-1.13l1.45.2-.19-1.45a1,1,0,0,1,2-.26l.36,2.75a1,1,0,0,1-.28.84,1,1,0,0,1-.84.28l-1.45-.2.19,1.45a1,1,0,0,1-.29.84A1,1,0,0,1,192.25,281Z"/></g><g class="cls-1"><path class="cls-2" d="M405.93,235h0a1,1,0,0,1-.78-.42l-4.18-5.8-4.49,5.56a1,1,0,0,1-1.59,0l-4.94-6.87a1,1,0,0,1,1.63-1.17l4.17,5.8,4.49-5.56a1,1,0,0,1,.81-.37,1,1,0,0,1,.78.42l4.18,5.8,4.49-5.56a1,1,0,0,1,1.56,1.26l-5.32,6.58A1,1,0,0,1,405.93,235Z"/><path class="cls-2" d="M364.91,136.35a.92.92,0,0,1-.42-.1,1,1,0,0,1-.48-1.33l1.24-2.64a1,1,0,0,1,1.55-.34L368,133l.69-1.46a1,1,0,0,1,1.55-.34l2.22,1.9a1,1,0,0,1,.12,1.41,1,1,0,0,1-1.41.11L370,133.56l-.68,1.46a1,1,0,0,1-.7.56,1,1,0,0,1-.86-.22l-1.23-1.05-.68,1.46A1,1,0,0,1,364.91,136.35Z"/><path class="cls-2" d="M334.6,266.45a.89.89,0,0,1-.36-.07l-2.73-1.05a1,1,0,0,1,.72-1.86l1.5.57.17-1.6a1,1,0,0,1,.47-.75,1,1,0,0,1,.88-.08l1.5.58.17-1.61a1,1,0,0,1,2,.2l-.3,2.91a1,1,0,0,1-.47.75,1,1,0,0,1-.88.08l-1.51-.57-.16,1.6a1,1,0,0,1-1,.9Z"/><path class="cls-2" d="M471,262.37a1,1,0,0,1-.81-.41L467,257.58a1,1,0,0,1-.15-.87,1,1,0,0,1,.6-.65l3.85-1.49-2.45-3.32a1,1,0,0,1-.16-.87,1,1,0,0,1,.6-.66l5.07-1.95a1,1,0,1,1,.72,1.86l-3.85,1.49,2.45,3.32a1,1,0,0,1,.16.87,1,1,0,0,1-.6.65l-3.85,1.49,2.45,3.32a1,1,0,0,1-.21,1.4A1,1,0,0,1,471,262.37Z"/><path class="cls-2" d="M535.81,166.28a1,1,0,0,1-.69-.28l-2-2a1,1,0,1,1,1.39-1.43l1.09,1.05.73-1.33a1,1,0,0,1,.72-.5,1,1,0,0,1,.85.27l1.09,1,.73-1.33a1,1,0,0,1,1.75,1l-1.36,2.47a1,1,0,0,1-.73.51,1,1,0,0,1-.84-.27l-1.09-1.06-.73,1.33a1,1,0,0,1-.73.51Z"/><path class="cls-2" d="M304,116.34a.85.85,0,0,1-.23,0l-2.46-.57a1,1,0,0,1-.75-1.21,1,1,0,0,1,1.2-.74l1.19.28-.05-1.22a1,1,0,0,1,1.23-1l1.19.27-.05-1.21a1,1,0,1,1,2-.08l.09,2.53a1,1,0,0,1-.36.81,1,1,0,0,1-.86.2l-1.19-.28.05,1.22a1,1,0,0,1-.37.81A1,1,0,0,1,304,116.34Z"/><path class="cls-2" d="M485.83,13.07a1,1,0,0,1-.65-.24l-2.94-2.51a1,1,0,0,1-.12-1.41,1,1,0,0,1,1.41-.11l2,1.66,1.08-2.32a1,1,0,0,1,1.56-.34l1.95,1.66,1.08-2.32A1,1,0,0,1,493,8l-1.65,3.5a1,1,0,0,1-.69.56,1,1,0,0,1-.86-.22l-1.95-1.66-1.08,2.32a1,1,0,0,1-.7.55A.76.76,0,0,1,485.83,13.07Z"/><path class="cls-2" d="M430,139.7a1,1,0,0,1-.65-.25l-2.07-1.79a1,1,0,0,1-.34-.81,1,1,0,0,1,.44-.77l1.18-.8-1.08-.93a1,1,0,0,1,.1-1.59l2.27-1.52a1,1,0,0,1,1.39.28,1,1,0,0,1-.27,1.38l-1.19.8,1.08.93a1,1,0,0,1,.34.81,1,1,0,0,1-.44.77l-1.18.8,1.08.93a1,1,0,0,1-.66,1.76Z"/><path class="cls-2" d="M318.81,159.11a.92.92,0,0,1-.46-.11,1,1,0,0,1-.53-.71l-.91-5.23-4.81,2.26a1,1,0,0,1-.88,0,1,1,0,0,1-.53-.71l-1.13-6.52a1,1,0,1,1,2-.35l.91,5.23,4.8-2.26a1,1,0,0,1,.89,0,1,1,0,0,1,.52.72l.92,5.23,4.8-2.26a1,1,0,0,1,.85,1.81l-6,2.82A1,1,0,0,1,318.81,159.11Z"/><path class="cls-2" d="M411.13,34.57a1,1,0,0,1-.66-.25l-7.3-6.41a1,1,0,0,1-.34-.82,1,1,0,0,1,.44-.77l7-4.63L404,16.15a1,1,0,0,1-.34-.82,1,1,0,0,1,.45-.77l8.11-5.35a1,1,0,1,1,1.1,1.67l-7,4.63,6.32,5.54a1,1,0,0,1-.11,1.59l-7,4.63,6.32,5.55a1,1,0,0,1-.66,1.75Z"/><path class="cls-2" d="M532.12,127.26a1,1,0,0,1-.29,0l-2.73-.82a1,1,0,1,1,.58-1.92l1.47.45,0-1.55a1,1,0,0,1,.41-.78,1,1,0,0,1,.88-.15l1.48.44,0-1.54a1,1,0,0,1,1-1,1,1,0,0,1,1,1l-.07,2.85a1,1,0,0,1-1.28.94l-1.48-.45,0,1.55a1,1,0,0,1-.41.78A1,1,0,0,1,532.12,127.26Z"/><path class="cls-2" d="M388.67,131.31h-.05a1,1,0,0,1-.77-.43l-.22-.31-.24.29a1,1,0,0,1-1.59-.07l-1-1.4a1,1,0,1,1,1.65-1.13l.21.31.24-.29a1,1,0,0,1,.82-.36,1,1,0,0,1,.77.43l.22.32.24-.29a1,1,0,1,1,1.53,1.28l-1.08,1.3A1,1,0,0,1,388.67,131.31Z"/><path class="cls-2" d="M535.79,76.19a1,1,0,0,1-.51-.14l-1.88-1.12a1,1,0,0,1-.48-.75,1,1,0,0,1,.3-.83l.64-.61-.75-.45a1,1,0,0,1-.49-.74,1,1,0,0,1,.31-.84l1.58-1.51a1,1,0,0,1,1.38,1.45l-.63.6.75.45a1,1,0,0,1,.18,1.58l-.64.61.76.45a1,1,0,0,1-.52,1.85Z"/><path class="cls-2" d="M346.49,189.73a1,1,0,0,1-.1-2l.65-.06-.23-.62a1,1,0,0,1,.84-1.35l.65-.06-.23-.62a1,1,0,0,1,.58-1.29,1,1,0,0,1,1.29.58l.7,1.84a1,1,0,0,1-.84,1.35l-.65.06.23.62a1,1,0,0,1-.84,1.35l-2,.19Z"/><path class="cls-2" d="M545.81,132.41a1,1,0,0,1-.87-.49,1,1,0,0,1,.36-1.37l.36-.21-.3-.29a1,1,0,0,1-.29-.83,1,1,0,0,1,.49-.75l.36-.2-.3-.29a1,1,0,1,1,1.4-1.43l1.23,1.2a1,1,0,0,1,.29.84,1,1,0,0,1-.48.74l-.36.21.3.29a1,1,0,0,1,.29.83,1,1,0,0,1-.49.75l-1.49.87A1,1,0,0,1,545.81,132.41Z"/><path class="cls-2" d="M452.75,162.6a1,1,0,0,1-.17-2l4.88-.82-2.08-4.49a1,1,0,0,1,.74-1.4l4.89-.82-2.08-4.5a1,1,0,0,1,1.82-.83l2.62,5.68a1,1,0,0,1,0,.88,1,1,0,0,1-.72.52l-4.88.82,2.08,4.49a1,1,0,0,1,0,.89,1,1,0,0,1-.72.52l-6.17,1Z"/><path class="cls-2" d="M316.08,262.22a1,1,0,0,1-.94-1.33l1.18-3.37-3.56-.24a1,1,0,0,1-.76-.45,1,1,0,0,1-.11-.88l1.18-3.37-3.56-.24a1,1,0,0,1-.93-1.07,1,1,0,0,1,1.07-.93l4.86.34a1,1,0,0,1,.88,1.33l-1.18,3.36,3.56.25a1,1,0,0,1,.76.45,1,1,0,0,1,.11.88l-1.61,4.6A1,1,0,0,1,316.08,262.22Z"/><path class="cls-2" d="M289.1,44.54a1,1,0,0,1-.83-.44l-2.22-3.28a1,1,0,0,1-.12-.88,1,1,0,0,1,.63-.63l2.51-.85-1.49-2.2a1,1,0,0,1-.11-.88,1,1,0,0,1,.62-.62l3.75-1.27a1,1,0,1,1,.64,1.89l-2.5.85,1.48,2.19a1,1,0,0,1,.12.88,1,1,0,0,1-.63.63l-2.51.85,1.49,2.2a1,1,0,0,1-.27,1.39A1,1,0,0,1,289.1,44.54Z"/><path class="cls-2" d="M376.1,45h0a1,1,0,0,1-1-1l.24-8.09a1,1,0,0,1,.42-.78,1,1,0,0,1,.88-.15l6.49,2,.2-6.78a1,1,0,0,1,.42-.79,1,1,0,0,1,.87-.14l7.74,2.38a1,1,0,1,1-.59,1.91l-6.48-2-.2,6.78a1,1,0,0,1-1.3.93l-6.49-2L377.1,44A1,1,0,0,1,376.1,45Z"/><path class="cls-2" d="M403.43,137.72a.94.94,0,0,1-.48-.13,1,1,0,0,1-.39-1.35l1.14-2.08a1,1,0,0,1,.73-.51,1,1,0,0,1,.84.27l.77.74.51-.93a1,1,0,0,1,.73-.51,1,1,0,0,1,.84.28l1.7,1.65a1,1,0,0,1-1.39,1.43l-.76-.74-.51.93a1,1,0,0,1-1.58.24l-.76-.74-.51.93A1,1,0,0,1,403.43,137.72Z"/><path class="cls-2" d="M507.31,21.74a1,1,0,0,1-.56-.17l-2.13-1.44a1,1,0,0,1-.43-.78,1,1,0,0,1,.35-.81l.95-.82-1-.7a1,1,0,0,1-.44-.78,1,1,0,0,1,.35-.81l2-1.67a1,1,0,1,1,1.29,1.53l-.95.81,1,.7a1,1,0,0,1,.43.78,1,1,0,0,1-.34.81l-1,.82,1,.7a1,1,0,0,1,.26,1.39A1,1,0,0,1,507.31,21.74Z"/><path class="cls-2" d="M527.43,261.63a1,1,0,0,1-.58-.19,1,1,0,0,1-.23-1.39l2.88-4a1,1,0,0,1,1.59,0l2.29,2.83,2.12-3a1,1,0,0,1,.78-.42,1,1,0,0,1,.81.37l3.12,3.84a1,1,0,0,1-1.56,1.26l-2.29-2.82-2.11,3a1,1,0,0,1-1.59.05l-2.3-2.83-2.11,3A1,1,0,0,1,527.43,261.63Z"/><path class="cls-2" d="M479.88,228.11a1,1,0,0,1-.43-1.9l1.36-.66-1-1.14a1,1,0,0,1-.22-.86,1,1,0,0,1,.54-.7l1.37-.65-1-1.14a1,1,0,1,1,1.51-1.32l1.85,2.14a1,1,0,0,1,.22.86,1,1,0,0,1-.54.69l-1.37.66,1,1.14a1,1,0,0,1,.23.86,1,1,0,0,1-.55.7L480.32,228A1,1,0,0,1,479.88,228.11Z"/><path class="cls-2" d="M375.89,260.1a1,1,0,0,1-1-1l-.18-8.49-8.14,2.42a1,1,0,0,1-.87-.15,1,1,0,0,1-.41-.79l-.19-8.49L357,246a1,1,0,0,1-1.24-.68,1,1,0,0,1,.67-1.24l9.4-2.79a1,1,0,0,1,.88.15,1,1,0,0,1,.41.79l.18,8.49,8.14-2.42a1,1,0,0,1,1.29.94l.2,9.8a1,1,0,0,1-1,1Z"/><path class="cls-2" d="M529.08,23.28a1.13,1.13,0,0,1-.36-.06l-4.78-1.85a1,1,0,0,1-.6-.66,1,1,0,0,1,.15-.87l2.27-3.07-3.56-1.38a1,1,0,0,1-.45-1.52l3-4.13a1,1,0,0,1,1.4-.2,1,1,0,0,1,.21,1.39L524.14,14l3.56,1.38a1,1,0,0,1,.6.65,1,1,0,0,1-.15.87L525.88,20l3.56,1.38a1,1,0,0,1-.36,1.93Z"/><path class="cls-2" d="M396.45,193.51a1,1,0,0,1-.7-.28l-2.15-2.11a1,1,0,0,1,1.4-1.43l1.21,1.19.83-1.48a1,1,0,0,1,.73-.51,1,1,0,0,1,.85.28l1.21,1.19.83-1.49a1,1,0,1,1,1.75,1l-1.47,2.64a1,1,0,0,1-1.57.22l-1.22-1.19-.82,1.49a1,1,0,0,1-.74.5Z"/><path class="cls-2" d="M415.39,210.66a1,1,0,0,1-.56-.17l-7.22-4.84a1,1,0,1,1,1.11-1.66l6.13,4.11,2.35-7a1,1,0,0,1,1.5-.51l6.14,4.11,2.35-7a1,1,0,0,1,1.9.64l-2.77,8.25a1,1,0,0,1-.62.63,1,1,0,0,1-.88-.12L418.68,203l-2.35,7a1,1,0,0,1-.62.63A1.19,1.19,0,0,1,415.39,210.66Z"/><path class="cls-2" d="M356.32,98.28a1,1,0,0,1-.58-.19l-1.91-1.36a1,1,0,0,1-.23-1.4A1,1,0,0,1,355,95.1l.84.6.36-1a1,1,0,0,1,.65-.61,1,1,0,0,1,.87.14l.84.6.36-1a1,1,0,0,1,1.88.7l-.81,2.2a1,1,0,0,1-.65.61,1,1,0,0,1-.87-.15l-.84-.6-.36,1a1,1,0,0,1-.65.61A.93.93,0,0,1,356.32,98.28Z"/><path class="cls-2" d="M487.89,37a1,1,0,0,1-.77-1.63l2.59-3.13L486,30.57a1,1,0,0,1-.36-1.55l2.59-3.13-3.7-1.67a1,1,0,1,1,.82-1.82l4.9,2.21a1,1,0,0,1,.56.69,1,1,0,0,1-.2.86L488,29.29l3.7,1.67a1,1,0,0,1,.36,1.55l-3.43,4.13A1,1,0,0,1,487.89,37Z"/><path class="cls-2" d="M552.13,216.78a1,1,0,0,1-.35-.06,1,1,0,0,1-.61-.65L550,212l-3.59,2.24a1,1,0,0,1-.88.09,1,1,0,0,1-.61-.65l-1.58-5.31a1,1,0,0,1,.67-1.25,1,1,0,0,1,1.25.68l1.21,4.05,3.59-2.24a1,1,0,0,1,1.48.56l1.21,4.06,3.6-2.24a1,1,0,0,1,1.06,1.7l-4.71,2.93A1,1,0,0,1,552.13,216.78Z"/><path class="cls-2" d="M441.29,115.69a1,1,0,0,1-.33-.06L439.1,115a1,1,0,1,1,.67-1.88l.63.22.05-.66a1,1,0,0,1,1.33-.86l.63.22,0-.66a1,1,0,0,1,1.08-.92,1,1,0,0,1,.92,1.07l-.16,2a1,1,0,0,1-.45.76,1,1,0,0,1-.88.11l-.63-.23,0,.66a1,1,0,0,1-.45.77A1.1,1.1,0,0,1,441.29,115.69Z"/><path class="cls-2" d="M536.52,281.81a1,1,0,0,1-.38-1.92l.66-.28-.44-.57a1,1,0,0,1,.4-1.54l.67-.28-.44-.57a1,1,0,0,1,1.57-1.23l1.25,1.61a1,1,0,0,1,.18.87,1,1,0,0,1-.58.67l-.67.27.45.58a1,1,0,0,1-.41,1.53l-1.87.79A1.07,1.07,0,0,1,536.52,281.81Z"/><path class="cls-2" d="M378.16,114.68a.91.91,0,0,1-.39-.08l-4.89-2.08a1,1,0,0,1-.58-.68,1,1,0,0,1,.19-.86l2.48-3.14-3.68-1.57a1,1,0,0,1-.39-1.54l3.3-4.16a1,1,0,1,1,1.57,1.24l-2.49,3.13,3.68,1.57a1,1,0,0,1,.4,1.54l-2.49,3.14,3.68,1.57a1,1,0,0,1-.39,1.92Z"/><path class="cls-2" d="M543.74,61.25a1,1,0,0,1-.42-.09L540.9,60a1,1,0,0,1-.56-.69,1,1,0,0,1,.21-.86l.88-1-1.23-.57a1,1,0,0,1-.56-.7,1,1,0,0,1,.22-.86l1.72-2a1,1,0,1,1,1.53,1.29l-.88,1,1.23.57a1,1,0,0,1,.35,1.55l-.88,1,1.23.57a1,1,0,0,1,.49,1.33A1,1,0,0,1,543.74,61.25Z"/><path class="cls-2" d="M390.63,153.12a1,1,0,0,1-.78-1.63l1-1.18-1.39-.61a1,1,0,0,1-.57-.68,1,1,0,0,1,.2-.87l1-1.17-1.39-.62a1,1,0,0,1-.51-1.32,1,1,0,0,1,1.32-.51l2.59,1.14a1,1,0,0,1,.37,1.55l-1,1.18,1.39.61a1,1,0,0,1,.57.68,1,1,0,0,1-.2.87l-1.79,2.19A1,1,0,0,1,390.63,153.12Z"/><path class="cls-2" d="M299,93.91a1,1,0,0,1-1-1L298,87.81l-4.91,1.41a1,1,0,0,1-.88-.15,1,1,0,0,1-.4-.79l-.06-5.12-4.92,1.41a1,1,0,1,1-.55-1.92l6.18-1.77a1,1,0,0,1,1.27,1l.06,5.11,4.92-1.41a1,1,0,0,1,.87.16,1,1,0,0,1,.4.79L300,92.9a1,1,0,0,1-1,1Z"/><path class="cls-2" d="M287.18,109.58H287l-1.93-.29a1,1,0,0,1-.73-.5,1,1,0,0,1,0-.89l.25-.59-.63-.09a1,1,0,0,1-.73-.51,1,1,0,0,1,0-.88L284,104a1,1,0,1,1,1.83.8l-.26.59.64.09a1,1,0,0,1,.73.51,1,1,0,0,1,0,.88l-.26.59.64.1a1,1,0,0,1-.14,2Z"/><path class="cls-2" d="M410.56,158.13a1,1,0,0,1-.37-.07l-5.47-2.24a1,1,0,1,1,.75-1.85l4.26,1.74.55-4.57a1,1,0,0,1,.49-.74,1,1,0,0,1,.88-.07l4.26,1.74.56-4.57a1,1,0,1,1,2,.24l-.71,5.87a1,1,0,0,1-.48.75,1,1,0,0,1-.89.06l-4.26-1.74-.55,4.57a1,1,0,0,1-1,.88Z"/><path class="cls-2" d="M555,101.64a1,1,0,0,1-.65-.24l-7.09-6.05a1,1,0,0,1-.35-.82,1,1,0,0,1,.44-.77L554,89.25l-6.09-5.2a1,1,0,0,1-.35-.81,1,1,0,0,1,.43-.78l7.72-5.23a1,1,0,0,1,1.12,1.66l-6.63,4.49,6.09,5.21a1,1,0,0,1,.35.81,1,1,0,0,1-.43.77l-6.63,4.51,6.09,5.2a1,1,0,0,1-.65,1.76Z"/><path class="cls-2" d="M557.2,137.69a1,1,0,0,1-.81-.4l-1-1.37a1,1,0,0,1,.43-1.53l.38-.15-.24-.33a1,1,0,0,1-.17-.87,1,1,0,0,1,.6-.66l1.6-.62a1,1,0,0,1,.73,1.86l-.38.15.24.32a1,1,0,0,1-.43,1.53l-.38.15.25.32a1,1,0,0,1-.21,1.4A1,1,0,0,1,557.2,137.69Z"/><path class="cls-2" d="M416.34,282.61a1,1,0,0,1-.71-.29l-2.88-2.94a1,1,0,0,1,1.42-1.4l2,2,1.41-2.42a1,1,0,0,1,1.58-.2l2,2,1.41-2.42a1,1,0,0,1,1.37-.36,1,1,0,0,1,.36,1.36l-2.06,3.56a1,1,0,0,1-1.58.2l-2-2-1.4,2.43a1,1,0,0,1-.74.49Z"/><path class="cls-2" d="M432.51,12.72a1,1,0,0,1-.84-.45l-.31-.47-.36.42a1,1,0,0,1-1.59-.11l-.3-.47-.37.42a1,1,0,0,1-1.5-1.33l1.24-1.4A1,1,0,0,1,429.3,9a1,1,0,0,1,.76.45l.31.46.36-.41a1,1,0,0,1,1.59.11l1,1.56a1,1,0,0,1-.29,1.39A1,1,0,0,1,432.51,12.72Z"/><path class="cls-2" d="M489,126.43a1,1,0,0,1-.75-1.66l2.54-2.9-3.47-1.68a1,1,0,0,1-.32-1.56l2.54-2.91L486,114a1,1,0,0,1,.87-1.8l4.66,2.25a1,1,0,0,1,.54.7,1,1,0,0,1-.23.86L489.32,119l3.47,1.68a1,1,0,0,1,.54.7,1,1,0,0,1-.22.86l-3.41,3.89A1,1,0,0,1,489,126.43Z"/><path class="cls-2" d="M337.07,147.66a1,1,0,0,1-.07-2l5.11-.38-1.72-4.83a1,1,0,0,1,.1-.89,1,1,0,0,1,.76-.45l5.12-.38-1.72-4.84a1,1,0,0,1,.6-1.27,1,1,0,0,1,1.28.6l2.16,6.07a1,1,0,0,1-.86,1.33l-5.12.39,1.72,4.83a1,1,0,0,1-.87,1.33l-6.42.48Z"/><path class="cls-2" d="M302.2,69.14a1,1,0,0,1-.52-1.85l4.61-2.84-4-3.7a1,1,0,0,1-.31-.83,1,1,0,0,1,.47-.75l4.62-2.85-4-3.7a1,1,0,1,1,1.37-1.46l4.91,4.6a1,1,0,0,1-.15,1.58l-4.62,2.85,4,3.7a1,1,0,0,1,.31.83,1,1,0,0,1-.47.75L302.72,69A1,1,0,0,1,302.2,69.14Z"/><path class="cls-2" d="M390.4,13.67h-.15a1,1,0,0,1-.73-.5l-.55-1-.81.8a1,1,0,0,1-.85.27,1,1,0,0,1-.73-.5l-1.18-2.14a1,1,0,1,1,1.75-1l.55,1,.81-.79a1,1,0,0,1,.84-.28,1,1,0,0,1,.73.51l.55,1,.82-.79a1,1,0,0,1,1.41,0,1,1,0,0,1,0,1.42l-1.76,1.71A1,1,0,0,1,390.4,13.67Z"/><path class="cls-2" d="M340.72,281.39a1,1,0,0,1-.84-1.54l2-3.15a1,1,0,0,1,.76-.46,1,1,0,0,1,.83.33l1.63,1.81,1.31-2.05a1,1,0,0,1,.76-.46,1,1,0,0,1,.83.33l2.5,2.78a1,1,0,0,1-1.49,1.34l-1.62-1.81-1.32,2.05a1,1,0,0,1-.76.46,1,1,0,0,1-.82-.33l-1.63-1.81-1.32,2.05A1,1,0,0,1,340.72,281.39Z"/><path class="cls-2" d="M555.92,281.88a1,1,0,0,1-.57-.18l-1.66-1.17a1,1,0,0,1-.07-1.59l.56-.46-.59-.41a1,1,0,0,1-.42-.78,1,1,0,0,1,.36-.81l1.56-1.29a1,1,0,0,1,1.28,1.54l-.56.46.59.41a1,1,0,0,1,.07,1.59l-.56.46.59.41a1,1,0,0,1-.58,1.82Z"/><path class="cls-2" d="M525.3,211h-.09l-6.56-.61a1,1,0,0,1,.19-2l5.25.49-.92-5.2a1,1,0,0,1,.24-.85,1,1,0,0,1,.83-.32l5.26.48-.92-5.2a1,1,0,1,1,2-.35l1.15,6.49a1,1,0,0,1-.25.86,1,1,0,0,1-.83.31l-5.26-.48.93,5.2a1,1,0,0,1-.25.85A1,1,0,0,1,525.3,211Z"/><path class="cls-2" d="M348.43,232.18a1,1,0,0,1-.57-.18l-2.68-1.9a1,1,0,0,1,1.15-1.63l1.61,1.14.67-1.86a1,1,0,0,1,1.52-.47l1.61,1.14.67-1.86a1,1,0,1,1,1.88.69l-1.12,3.08a1,1,0,0,1-.64.61,1,1,0,0,1-.87-.13l-1.61-1.14-.68,1.85a1,1,0,0,1-.64.61A.76.76,0,0,1,348.43,232.18Z"/><path class="cls-2" d="M506.46,201.18a1,1,0,0,1-.69-.27l-1.29-1.24a1,1,0,1,1,1.38-1.44l.34.32.23-.41a1,1,0,0,1,.72-.51,1,1,0,0,1,.85.26l.34.33.22-.42a1,1,0,0,1,1.36-.4,1,1,0,0,1,.4,1.35l-.84,1.57a1,1,0,0,1-.73.51,1,1,0,0,1-.84-.26l-.35-.33-.22.42a1,1,0,0,1-.72.51Z"/><path class="cls-2" d="M309.56,180.9a1,1,0,0,1-.54-.15l-1.85-1.19a1,1,0,0,1-.45-.76,1,1,0,0,1,.33-.83l.66-.59-.75-.47a1,1,0,0,1-.45-.77,1,1,0,0,1,.33-.82l1.63-1.46a1,1,0,0,1,1.41.07,1,1,0,0,1-.08,1.42l-.65.58.74.48a1,1,0,0,1,.45.76,1,1,0,0,1-.32.83l-.66.59.74.47a1,1,0,0,1-.54,1.84Z"/><path class="cls-2" d="M554.71,62.92a1,1,0,0,1-.85-.48,1,1,0,0,1,.33-1.38l.68-.41-.58-.54a1,1,0,0,1,.17-1.58l.68-.41-.58-.55a1,1,0,0,1,0-1.41,1,1,0,0,1,1.42,0l1.52,1.44a1,1,0,0,1,.31.84,1,1,0,0,1-.47.74l-.68.42.58.54a1,1,0,0,1,.3.83,1,1,0,0,1-.47.75l-1.8,1.09A1,1,0,0,1,554.71,62.92Z"/><path class="cls-2" d="M510.67,263a1,1,0,0,1-.95-.7,1,1,0,0,1,.65-1.25l1.45-.47-.83-1.28a1,1,0,0,1-.1-.88,1,1,0,0,1,.63-.62l1.46-.46-.83-1.28a1,1,0,0,1,.29-1.39,1,1,0,0,1,1.38.3l1.55,2.38a1,1,0,0,1,.1.88,1,1,0,0,1-.63.62l-1.46.46.83,1.28a1,1,0,0,1-.53,1.5L511,263A1.12,1.12,0,0,1,510.67,263Z"/><path class="cls-2" d="M319.71,73.78a1,1,0,0,1-.92-.62,1,1,0,0,1,.54-1.3L325,69.51l-3.77-4.89a1,1,0,0,1,.41-1.53l5.71-2.36-3.77-4.89a1,1,0,1,1,1.58-1.22l4.57,5.93a1,1,0,0,1,.18.87,1,1,0,0,1-.59.67l-5.71,2.35,3.78,4.89a1,1,0,0,1-.42,1.53l-6.92,2.85A1,1,0,0,1,319.71,73.78Z"/><path class="cls-2" d="M556.31,118.94a1,1,0,0,1-.95-.71l-1-3.19-2.82,1.77a1,1,0,0,1-.88.09,1,1,0,0,1-.6-.65l-1-3.18-2.82,1.77a1,1,0,0,1-1.06-1.7l3.93-2.46a1,1,0,0,1,.88-.09,1,1,0,0,1,.61.65l1,3.18,2.82-1.77a1,1,0,0,1,1.49.56l1.33,4.44a1,1,0,0,1-.67,1.24A.93.93,0,0,1,556.31,118.94Z"/><path class="cls-2" d="M465.17,114.3a1,1,0,0,1-.66-.25l-3-2.62a1,1,0,0,1-.09-1.41,1,1,0,0,1,1.41-.09l2,1.75,1.16-2.39a1,1,0,0,1,.7-.55,1,1,0,0,1,.86.23l2,1.75,1.16-2.4a1,1,0,1,1,1.8.88l-1.73,3.57a1,1,0,0,1-.7.55,1,1,0,0,1-.86-.23l-2-1.75-1.16,2.39a1.05,1.05,0,0,1-.7.55Z"/><path class="cls-2" d="M434.88,230.32a1.15,1.15,0,0,1-.37-.06,1,1,0,0,1-.59-.66l-.74-2.55-2.26,1.38a1,1,0,0,1-.89.08,1,1,0,0,1-.59-.66l-1.1-3.81a1,1,0,0,1,1.93-.55L431,226l2.26-1.38a1,1,0,0,1,.89-.08,1,1,0,0,1,.59.66l.74,2.55,2.27-1.38a1,1,0,0,1,1.37.33,1,1,0,0,1-.33,1.38l-3.39,2.06A1,1,0,0,1,434.88,230.32Z"/><path class="cls-2" d="M286,146.56a1,1,0,0,1-.57-1.83l5.64-3.84-5.19-4.42a1,1,0,0,1-.35-.82,1,1,0,0,1,.43-.77l5.64-3.84-5.19-4.43a1,1,0,0,1-.12-1.41,1,1,0,0,1,1.41-.12l6.2,5.28a1.05,1.05,0,0,1,.35.82,1,1,0,0,1-.44.77l-5.64,3.85,5.2,4.42a1,1,0,0,1,.35.81,1,1,0,0,1-.44.78l-6.72,4.57A1,1,0,0,1,286,146.56Z"/><path class="cls-2" d="M445.27,138.54h-.15a1,1,0,0,1-.83-1.14l.79-5.15a1,1,0,0,1,.51-.73,1,1,0,0,1,.89,0l3.56,1.59.6-3.86a1,1,0,0,1,1.4-.76l4.76,2.13a1,1,0,0,1-.82,1.83l-3.56-1.6-.6,3.86a1,1,0,0,1-.51.73,1,1,0,0,1-.88,0l-3.57-1.59-.6,3.86A1,1,0,0,1,445.27,138.54Z"/><path class="cls-2" d="M366.48,199.46a1,1,0,0,1-.53-1.85l4.07-2.55-3.54-3.26a1,1,0,0,1-.32-.82,1,1,0,0,1,.46-.76l4.08-2.56-3.54-3.26a1,1,0,0,1-.07-1.41,1,1,0,0,1,1.42-.06l4.51,4.14a1,1,0,0,1,.32.83,1,1,0,0,1-.47.76l-4.07,2.56,3.54,3.25a1,1,0,0,1-.14,1.58L367,199.3A.92.92,0,0,1,366.48,199.46Z"/><path class="cls-2" d="M555.26,18.55a1,1,0,0,1-1-.77l-.94-4-3.61,2a1,1,0,0,1-1.45-.65l-.94-4-3.62,2a1,1,0,1,1-1-1.75l4.77-2.59a1,1,0,0,1,1.45.65l.93,4,3.62-2a1,1,0,0,1,.89,0,1,1,0,0,1,.56.69l1.23,5.28a1,1,0,0,1-.74,1.2A.93.93,0,0,1,555.26,18.55Z"/><path class="cls-2" d="M439.5,53.86a1,1,0,0,1-.75-.34l-5.88-6.66a1,1,0,1,1,1.5-1.32l5,5.67,4.14-6.33a1,1,0,0,1,1.59-.12l5,5.68,4.15-6.34a1,1,0,1,1,1.67,1.1l-4.86,7.43a1,1,0,0,1-1.59.11l-5-5.67-4.15,6.33a1,1,0,0,1-.76.45Z"/><path class="cls-2" d="M353.4,168.2a1,1,0,0,1-.24,0l-6.24-1.54a1,1,0,0,1,.48-1.94l5,1.23-.14-5.12a1,1,0,0,1,1.24-1l5,1.23-.13-5.13a1,1,0,0,1,2-.05l.16,6.44a1,1,0,0,1-1.24,1l-5-1.22.13,5.12a1,1,0,0,1-.38.8A.94.94,0,0,1,353.4,168.2Z"/><path class="cls-2" d="M376.35,281.35a1,1,0,0,1-.83-.44l-2.77-4.17-3.28,3.78a1,1,0,0,1-.82.34,1,1,0,0,1-.77-.44l-2.77-4.17L361.83,280a1,1,0,1,1-1.51-1.32l4.14-4.76a1,1,0,0,1,.82-.34,1,1,0,0,1,.77.44l2.77,4.17,3.28-3.78a1,1,0,0,1,1.59.1l3.49,5.26a1,1,0,0,1-.27,1.38A1,1,0,0,1,376.35,281.35Z"/><path class="cls-2" d="M464.77,178.12a1,1,0,0,1-.58-.19,1,1,0,0,1-.23-1.39l1.27-1.77a1,1,0,0,1,.79-.42,1,1,0,0,1,.8.37l.55.68.5-.71a1,1,0,0,1,.78-.41.94.94,0,0,1,.81.37l1.37,1.69a1,1,0,0,1-.15,1.4,1,1,0,0,1-1.41-.14l-.54-.68-.5.71a1,1,0,0,1-.79.41,1,1,0,0,1-.8-.37l-.55-.67-.5.7A1,1,0,0,1,464.77,178.12Z"/><path class="cls-2" d="M513.32,162.2a.82.82,0,0,1-.26,0,1,1,0,0,1-.66-.59l-1.82-4.49L506.73,160a1,1,0,0,1-1.54-.42l-2.3-5.7a1,1,0,1,1,1.85-.75l1.81,4.49,3.85-2.94a1,1,0,0,1,.88-.17,1,1,0,0,1,.66.59l1.82,4.49,3.85-2.94a1,1,0,0,1,1.22,1.59l-4.9,3.73A1,1,0,0,1,513.32,162.2Z"/><path class="cls-2" d="M443.54,30.16a1,1,0,0,1-.4-1.92l6.33-2.72-4.3-5.38a1,1,0,0,1-.19-.87,1,1,0,0,1,.58-.67l6.33-2.72-4.3-5.39a1,1,0,0,1,1.57-1.25l5.11,6.41a1,1,0,0,1,.19.87,1,1,0,0,1-.58.68l-6.33,2.72,4.3,5.38a1,1,0,0,1,.19.87,1,1,0,0,1-.58.68l-7.53,3.23A1.09,1.09,0,0,1,443.54,30.16Z"/><path class="cls-2" d="M496.6,141.44a1,1,0,0,1-.71-.29l-3.07-3.07a1,1,0,0,1,1.41-1.42l2.15,2.15,1.49-2.64a1,1,0,0,1,.74-.5,1,1,0,0,1,.84.28l2.15,2.15,1.5-2.64a1,1,0,0,1,1.74,1l-2.15,3.78a1,1,0,0,1-.73.5,1,1,0,0,1-.84-.28L499,138.3l-1.5,2.63a1,1,0,0,1-.74.5Z"/><path class="cls-2" d="M322,106.88a1,1,0,0,1-.74-.32l-4.91-5.35a1,1,0,0,1-.24-.85,1,1,0,0,1,.52-.72l5.29-2.72-4-4.38a1,1,0,0,1-.25-.85,1,1,0,0,1,.53-.71l6.45-3.32a1,1,0,0,1,1.35.44,1,1,0,0,1-.43,1.34l-5.29,2.72,4,4.38A1,1,0,0,1,324,98.1l-5.29,2.72,4,4.38a1,1,0,0,1-.73,1.68Z"/><path class="cls-2" d="M325.41,282.86a1,1,0,0,1-.83-.44L320.93,277l-4.28,5a1,1,0,0,1-1.59-.1l-3.66-5.44-4.29,5a1,1,0,1,1-1.51-1.31l5.14-6a1,1,0,0,1,1.58.1l3.67,5.44,4.28-5a1,1,0,0,1,.81-.35,1,1,0,0,1,.77.44l4.39,6.53a1,1,0,0,1-.27,1.39A1,1,0,0,1,325.41,282.86Z"/><path class="cls-2" d="M394,58.06a1,1,0,0,1-.88-.52l-1.49-2.69a1,1,0,0,1,0-.89,1,1,0,0,1,.68-.57L394,53l-.86-1.55a1,1,0,0,1,0-.89,1,1,0,0,1,.69-.57l3-.71A1,1,0,0,1,398,50a1,1,0,0,1-.74,1.2l-1.72.41.85,1.55a1,1,0,0,1,0,.89,1,1,0,0,1-.68.57L394,55l.85,1.55a1,1,0,0,1-.39,1.36A1.07,1.07,0,0,1,394,58.06Z"/><path class="cls-2" d="M397.49,115.92a1,1,0,0,1-.72-.31,1,1,0,0,1,0-1.41l4.24-4.07-5.05-3a1,1,0,0,1-.48-.74,1,1,0,0,1,.3-.84l4.25-4.07-5.05-3a1,1,0,0,1-.35-1.37,1,1,0,0,1,1.38-.35l6.17,3.7a1,1,0,0,1,.48.74,1,1,0,0,1-.3.84l-4.25,4.07,5.05,3a1,1,0,0,1,.48.74,1,1,0,0,1-.3.84l-5.19,5A1,1,0,0,1,397.49,115.92Z"/><path class="cls-2" d="M519.63,184.93l-.18,0a1,1,0,0,1-.71-.53l-3.52-6.86-5.69,5.21a1,1,0,0,1-.85.25,1,1,0,0,1-.71-.53l-4.12-8a1,1,0,0,1,1.79-.92l3.51,6.86,5.68-5.21a1,1,0,0,1,.85-.24,1,1,0,0,1,.72.52l3.52,6.86,5.69-5.2a1,1,0,0,1,1.41.06,1,1,0,0,1-.06,1.41l-6.66,6.09A1,1,0,0,1,519.63,184.93Z"/><path class="cls-2" d="M421.83,184.67a1.26,1.26,0,0,1-.27,0l-4.36-1.24a1,1,0,0,1-.66-.6,1,1,0,0,1,.08-.88l1.66-2.76-3.1-.88a1,1,0,0,1-.65-.6,1,1,0,0,1,.07-.88l2.35-3.88a1,1,0,1,1,1.71,1L417,176.7l3.1.88a1,1,0,0,1,.66.6,1,1,0,0,1-.08.88L419,181.82l3.11.88a1,1,0,0,1-.28,2Z"/><path class="cls-2" d="M463.78,70.47a1,1,0,0,1-.29,0l-2.16-.64a1,1,0,0,1-.67-1.25,1,1,0,0,1,1.24-.67l.91.27,0-.94a1,1,0,0,1,.41-.79,1,1,0,0,1,.87-.15l.91.27,0-1a1,1,0,0,1,1-1h0a1,1,0,0,1,1,1L467,67.88a1,1,0,0,1-.41.79,1,1,0,0,1-.87.15l-.91-.27,0,1a1,1,0,0,1-.41.78A1,1,0,0,1,463.78,70.47Z"/><path class="cls-2" d="M385.42,87.42a1,1,0,0,1-.3,0L378,85.17a1,1,0,0,1-.66-1.25,1,1,0,0,1,1.26-.66l5.82,1.82.21-6.1a1,1,0,0,1,.42-.78.94.94,0,0,1,.87-.14l5.84,1.81.2-6.11a1,1,0,0,1,1-1,1,1,0,0,1,1,1l-.25,7.41a1,1,0,0,1-.42.78,1,1,0,0,1-.88.14l-5.83-1.81-.2,6.11a1,1,0,0,1-1,1Z"/><path class="cls-2" d="M433.62,164.22h-.11l-5.66-.67a1,1,0,0,1,.23-2l4.36.52-.66-4.34a1,1,0,0,1,.27-.84,1,1,0,0,1,.84-.3l4.35.51-.65-4.34a1,1,0,1,1,2-.3l.85,5.64a1,1,0,0,1-.27.84,1,1,0,0,1-.84.3l-4.36-.51.66,4.33a1,1,0,0,1-1,1.15Z"/><path class="cls-2" d="M517.37,78.68a1,1,0,0,1-1-1L516,71.51l-5.91,2a1,1,0,0,1-.88-.12,1,1,0,0,1-.44-.77l-.35-6.23-5.92,2a1,1,0,1,1-.63-1.89l7.16-2.41a1.05,1.05,0,0,1,.88.12,1,1,0,0,1,.43.78l.36,6.23,5.91-2a1,1,0,0,1,1.32.89l.42,7.54a1,1,0,0,1-.94,1Z"/><path class="cls-2" d="M334.48,249.21a1,1,0,0,1-.38-.07,1,1,0,0,1-.55-1.3l1.06-2.63a1,1,0,0,1,.66-.59,1,1,0,0,1,.87.17l1.21.92.57-1.41a1,1,0,0,1,1.53-.42l2.25,1.71a1,1,0,0,1-1.21,1.59l-1.21-.92-.56,1.41a1,1,0,0,1-.67.59,1,1,0,0,1-.87-.16l-1.21-.93-.57,1.42A1,1,0,0,1,334.48,249.21Z"/><path class="cls-2" d="M508.67,243.92a1,1,0,0,1-1-.85,1,1,0,0,1,.84-1.14l7.63-1.19-3.17-7a1,1,0,0,1,0-.89,1,1,0,0,1,.72-.51l7.63-1.19-3.16-7.05a1,1,0,0,1,1.82-.82l3.7,8.24a1,1,0,0,1-.75,1.4l-7.64,1.19,3.17,7.05a1,1,0,0,1-.76,1.4l-8.92,1.38Z"/><path class="cls-2" d="M452.55,96.65h0l-5.05,0a1,1,0,0,1,0-2h0l3.74,0-1-3.62a1,1,0,0,1,.17-.87,1,1,0,0,1,.8-.39l3.75,0-1-3.62a1,1,0,0,1,1.94-.51l1.29,4.88a1,1,0,0,1-.17.87,1,1,0,0,1-.8.39l-3.74,0,1,3.62a1,1,0,0,1-1,1.26Z"/><path class="cls-2" d="M554.33,155.79a1,1,0,0,1-.22-2l.52-.12-.26-.47a1,1,0,0,1,.66-1.45l.52-.12-.25-.47a1,1,0,1,1,1.76-.95l.88,1.63a1.06,1.06,0,0,1,0,.89,1,1,0,0,1-.69.56l-.52.12.25.47a1,1,0,0,1,0,.89,1,1,0,0,1-.69.56l-1.8.41A.82.82,0,0,1,554.33,155.79Z"/><path class="cls-2" d="M315.29,38.11a1,1,0,0,1-.73-.32L308,30.61a1,1,0,1,1,1.47-1.36l5.71,6.22,4.49-7.16a1,1,0,0,1,.75-.46,1,1,0,0,1,.83.32l5.72,6.21,4.49-7.16a1,1,0,0,1,1.7,1.07l-5.19,8.27a1,1,0,0,1-1.58.14l-5.72-6.22-4.49,7.17a1,1,0,0,1-.75.46Z"/><path class="cls-2" d="M423.56,245.23h-.16a1,1,0,0,1-.83-1.15l.26-1.61a1,1,0,0,1,1.4-.76l.29.14.05-.33a1,1,0,0,1,.52-.72,1,1,0,0,1,.88,0l1.49.67a1,1,0,0,1-.82,1.83l-.29-.14-.06.32a1,1,0,0,1-1.39.76l-.3-.14-.05.33A1,1,0,0,1,423.56,245.23Z"/><path class="cls-2" d="M412.47,88.26h0a1,1,0,0,1-1-1l0-.48-.47.11a1,1,0,0,1-.86-.21,1,1,0,0,1-.36-.81l0-.48-.47.11a1,1,0,0,1-1.19-.76,1,1,0,0,1,.75-1.2l1.75-.39a1,1,0,0,1,.86.21,1,1,0,0,1,.36.81l0,.48.46-.11a1,1,0,0,1,.87.21,1,1,0,0,1,.35.81l-.08,1.79A1,1,0,0,1,412.47,88.26Z"/><path class="cls-2" d="M287.82,220.38a1,1,0,0,1-.68-.26,1,1,0,0,1-.06-1.41l2-2.14-2.59-1.34a1,1,0,0,1-.53-.72,1,1,0,0,1,.25-.85l2-2.15-2.59-1.34a1,1,0,0,1-.43-1.34,1,1,0,0,1,1.35-.43l3.75,1.94a1,1,0,0,1,.28,1.56l-2,2.15,2.59,1.34a1,1,0,0,1,.53.72,1,1,0,0,1-.25.85l-2.87,3.1A1,1,0,0,1,287.82,220.38Z"/><path class="cls-2" d="M558.22,41.65a1,1,0,0,1-.85-.47l-4-6.36-5.08,5.51a1,1,0,0,1-.83.32,1,1,0,0,1-.75-.47l-4-6.36-5.09,5.51a1,1,0,0,1-1.41.06A1,1,0,0,1,536.2,38l6-6.47a1,1,0,0,1,.83-.32,1,1,0,0,1,.75.47l4,6.36,5.08-5.51a1,1,0,0,1,.83-.32,1,1,0,0,1,.76.47l4.66,7.47a1,1,0,0,1-.32,1.38A1,1,0,0,1,558.22,41.65Z"/><path class="cls-2" d="M290,174.41a1,1,0,0,1-.82-.41l-3.29-4.55a1,1,0,0,1,.46-1.52l4-1.52-2.53-3.48a1,1,0,0,1,.46-1.52l5.25-2a1,1,0,0,1,1.29.58,1,1,0,0,1-.58,1.29l-4,1.51,2.52,3.48a1,1,0,0,1,.15.87,1,1,0,0,1-.6.65l-4,1.52,2.52,3.48a1,1,0,0,1-.22,1.4A1,1,0,0,1,290,174.41Z"/><path class="cls-2" d="M461.15,239.77a1,1,0,0,1-.83-.44l-4-5.84a1,1,0,0,1,.49-1.51l5.46-1.91L459,225.31a1,1,0,0,1-.13-.88,1,1,0,0,1,.62-.63l6.7-2.33a1,1,0,0,1,1.27.61,1,1,0,0,1-.62,1.28l-5.45,1.9,3.28,4.76a1,1,0,0,1,.12.88,1,1,0,0,1-.62.63l-5.46,1.91L462,238.2a1,1,0,0,1-.26,1.39A1,1,0,0,1,461.15,239.77Z"/><path class="cls-2" d="M417.51,123.15a.91.91,0,0,1-.23,0l-5.22-1.27a1,1,0,0,1,.47-1.94l4,1-.12-4.06a1,1,0,0,1,.37-.8,1,1,0,0,1,.86-.2l4,1-.12-4.06a1,1,0,0,1,1-1,1,1,0,0,1,1,1l.16,5.37a1,1,0,0,1-1.24,1l-3.95-1,.12,4.06a1,1,0,0,1-.37.81A1,1,0,0,1,417.51,123.15Z"/><path class="cls-2" d="M489.27,178.15a1.1,1.1,0,0,1-.4-.08l-1.93-.82a1,1,0,0,1,.78-1.84l.73.31.1-.79a1,1,0,0,1,.5-.73,1,1,0,0,1,.89-.06l.73.31.1-.78a1,1,0,0,1,1.13-.86,1,1,0,0,1,.85,1.12l-.28,2.09a1,1,0,0,1-.49.73,1,1,0,0,1-.89.06l-.73-.31-.1.78a1,1,0,0,1-.5.74A1.05,1.05,0,0,1,489.27,178.15Z"/><path class="cls-2" d="M336.11,217.06a1.06,1.06,0,0,1-.45-.11,1,1,0,0,1-.44-1.34l4.12-8.12a1,1,0,0,1,1.57-.29l5.77,5.24,3.52-6.95a1,1,0,0,1,.72-.53,1,1,0,0,1,.85.24l6.73,6.12a1,1,0,1,1-1.34,1.48l-5.77-5.24-3.52,6.95a1,1,0,0,1-1.56.29l-5.78-5.24L337,216.51A1,1,0,0,1,336.11,217.06Z"/><path class="cls-2" d="M398.07,282.18a1,1,0,0,1-1-.74l-1-3.76-3.37,1.95a1,1,0,0,1-.88.05,1,1,0,0,1-.58-.66l-1-3.76-3.37,1.94a1,1,0,0,1-1.36-.36,1,1,0,0,1,.36-1.37l4.5-2.6a1,1,0,0,1,.88-.06,1,1,0,0,1,.59.67l1,3.76,3.36-1.95a1,1,0,0,1,.88-.06,1,1,0,0,1,.59.67l1.32,5a1,1,0,0,1-.72,1.22A1.07,1.07,0,0,1,398.07,282.18Z"/><path class="cls-2" d="M319.87,133.42a1.07,1.07,0,0,1-.43-.09l-6.51-3.11a1,1,0,0,1-.47-1.34,1,1,0,0,1,1.33-.47l5.33,2.55,1-5.82a1,1,0,0,1,.53-.71,1,1,0,0,1,.89,0l5.33,2.54,1-5.82a1,1,0,0,1,2,.36l-1.28,7.11a1,1,0,0,1-.53.71,1,1,0,0,1-.88,0l-5.34-2.54-1,5.81a1,1,0,0,1-1,.82Z"/><path class="cls-2" d="M424.05,36.89a1,1,0,0,1-.8-.41,1,1,0,0,1,.21-1.4l2.8-2.07-2.74-2.15a1,1,0,0,1-.39-.8,1,1,0,0,1,.41-.79l2.8-2.08L423.6,25a1,1,0,0,1,1.23-1.57l3.78,3a1,1,0,0,1,.38.8,1,1,0,0,1-.41.78l-2.8,2.08,2.74,2.16a1,1,0,0,1,.39.8,1,1,0,0,1-.41.79l-3.85,2.85A1,1,0,0,1,424.05,36.89Z"/><path class="cls-2" d="M526.45,146.05a1,1,0,0,1-.34-.06l-4.57-1.67a1,1,0,0,1-.61-.65,1,1,0,0,1,.14-.87l2.06-2.9-3.34-1.22a1,1,0,0,1-.61-.64,1,1,0,0,1,.14-.88l2.82-4a1,1,0,0,1,1.4-.23,1,1,0,0,1,.23,1.39l-2.06,2.89,3.34,1.22a1,1,0,0,1,.61.65,1,1,0,0,1-.14.87l-2.06,2.9,3.34,1.22a1,1,0,0,1-.35,1.94Z"/><path class="cls-2" d="M522,282.17h-.16l-2.53-.42a1,1,0,0,1-.72-.51,1,1,0,0,1,0-.89l.53-1.14-1.24-.2a1,1,0,0,1-.75-1.41l1.07-2.32a1,1,0,1,1,1.82.83l-.52,1.14,1.23.2a1,1,0,0,1,.75,1.4l-.52,1.14,1.24.21a1,1,0,0,1,.82,1.14A1,1,0,0,1,522,282.17Z"/><path class="cls-2" d="M527.44,112.93a1,1,0,0,1-.82-.42l-5.8-8.24a1,1,0,0,1-.14-.87,1,1,0,0,1,.61-.65l8.25-3-5.06-7.16A1,1,0,0,1,525,91.1l9.47-3.42a1,1,0,1,1,.68,1.88l-8.24,3,5.06,7.16a1,1,0,0,1,.13.88,1,1,0,0,1-.61.64l-8.24,3,5,7.16a1,1,0,0,1-.24,1.4A1,1,0,0,1,527.44,112.93Z"/><path class="cls-2" d="M502.63,222.63h0a1,1,0,0,1-1-1V219l-2.54.7a1,1,0,0,1-1.27-1v-2.63l-2.55.69a1,1,0,0,1-1.22-.7,1,1,0,0,1,.7-1.23l3.8-1a1,1,0,0,1,.88.17,1,1,0,0,1,.39.79v2.64l2.54-.7a1,1,0,0,1,.87.17,1,1,0,0,1,.4.8v3.95A1,1,0,0,1,502.63,222.63Z"/><path class="cls-2" d="M286.69,17.3a1,1,0,0,1-.67-.25l-3.26-2.93a1,1,0,0,1-.08-1.42,1,1,0,0,1,1.41-.07l2.29,2,1.38-2.75a1,1,0,0,1,.71-.53,1,1,0,0,1,.85.23l2.29,2.06L293,10.94a1,1,0,1,1,1.79.89l-2,3.93a1,1,0,0,1-1.57.29L289,14l-1.38,2.75a1,1,0,0,1-.7.54Z"/><path class="cls-2" d="M500,55.16a1,1,0,0,1-1-.78l-1.75-7.78a1,1,0,0,1,1-1.22l6.67.3-1.47-6.5a1,1,0,0,1,.21-.86,1,1,0,0,1,.81-.36l8,.37a1,1,0,0,1-.09,2L505.77,40l1.47,6.5a1,1,0,0,1-1,1.22l-6.66-.3,1.47,6.5a1,1,0,0,1-.76,1.2Z"/><path class="cls-2" d="M445.5,192.94a1,1,0,0,1-.4-.09,1,1,0,0,1-.51-1.32l1.9-4.34-4.7-.69a1,1,0,0,1-.73-.5,1,1,0,0,1,0-.89l1.9-4.35-4.7-.68a1,1,0,0,1-.84-1.14,1,1,0,0,1,1.13-.84l6,.87a1,1,0,0,1,.73.51,1,1,0,0,1,0,.88l-1.9,4.35,4.7.69a1,1,0,0,1,.73.5,1,1,0,0,1,0,.89l-2.43,5.55A1,1,0,0,1,445.5,192.94Z"/><path class="cls-2" d="M352.24,265.27a1,1,0,0,1-.66-.25l-2.65-2.33a1,1,0,0,1-.09-1.41,1,1,0,0,1,1.41-.09l1.67,1.47,1-2a1,1,0,0,1,.7-.55,1,1,0,0,1,.86.23l1.67,1.47,1-2a1,1,0,0,1,1.8.87l-1.54,3.18a1,1,0,0,1-.71.54,1,1,0,0,1-.85-.22l-1.68-1.47-1,2a1,1,0,0,1-.7.54A.65.65,0,0,1,352.24,265.27Z"/><path class="cls-2" d="M329.2,178.69l-.2,0-3.6-.71a1,1,0,1,1,.39-2l2.31.45-.18-2.35a1,1,0,0,1,1.19-1.06l2.32.46-.17-2.36a1,1,0,1,1,2-.15l.27,3.66a1,1,0,0,1-.33.83,1,1,0,0,1-.86.23l-2.31-.45.17,2.35a1,1,0,0,1-1,1.08Z"/><path class="cls-2" d="M553.13,261.31a1,1,0,0,1-.9-.56,1,1,0,0,1,.46-1.34l1.48-.72-1.09-1.23a1,1,0,0,1-.23-.86,1,1,0,0,1,.54-.7l1.48-.73-1.09-1.24a1,1,0,1,1,1.5-1.32l2,2.22a1,1,0,0,1,.23.86,1,1,0,0,1-.54.7l-1.49.73,1.09,1.23a1,1,0,0,1-.31,1.56l-2.65,1.3A1,1,0,0,1,553.13,261.31Z"/><path class="cls-2" d="M419.49,71.93a1,1,0,0,1-.53-.15l-7.86-4.85a1,1,0,0,1-.47-.75,1,1,0,0,1,.31-.83l5.79-5.42L410,55.77a1,1,0,0,1-.15-1.58l6.75-6.3a1,1,0,0,1,1.36,1.46l-5.79,5.41,6.75,4.16a1,1,0,0,1,.47.75,1,1,0,0,1-.31.83l-5.8,5.41L420,70.08a1,1,0,0,1-.52,1.85Z"/><path class="cls-2" d="M441.45,258.67a1,1,0,0,1-.16-2l3.7-.62-1.58-3.41a1,1,0,0,1,.75-1.4l3.71-.63-1.58-3.41a1,1,0,1,1,1.81-.84l2.13,4.6a1,1,0,0,1,0,.89,1,1,0,0,1-.72.52l-3.71.62,1.58,3.41a1,1,0,0,1,0,.89,1,1,0,0,1-.72.52l-5,.84Z"/><path class="cls-2" d="M549.85,195.26a1,1,0,0,1-.61-.2,1,1,0,0,1-.39-.79l-.07-8.38-8.06,2.27a1,1,0,0,1-.87-.16,1,1,0,0,1-.4-.79l-.07-9.69a1,1,0,0,1,1-1h0a1,1,0,0,1,1,1l.06,8.37,8.06-2.27a1,1,0,0,1,.87.16,1,1,0,0,1,.4.79l.07,8.38,8.06-2.27a1,1,0,0,1,.54,1.93l-9.32,2.62A.84.84,0,0,1,549.85,195.26Z"/><path class="cls-2" d="M290.57,280.21a1,1,0,0,1-.83-.44l-4.36-6.45a1,1,0,0,1,.5-1.51l6.14-2.08-3.63-5.37a1,1,0,0,1,.51-1.51l7.37-2.5a1,1,0,0,1,1.27.63,1,1,0,0,1-.63,1.27l-6.13,2.08,3.63,5.36a1,1,0,0,1,.12.88,1,1,0,0,1-.63.63l-6.13,2.08,3.63,5.37a1,1,0,0,1-.27,1.39A1,1,0,0,1,290.57,280.21Z"/><path class="cls-2" d="M347.11,63a1,1,0,0,1-.5-.14,1,1,0,0,1-.37-1.36l3.18-5.54-6.19-1.6a1,1,0,0,1-.61-1.47l3.18-5.54-6.19-1.6a1,1,0,0,1,.5-1.94l7.45,1.93a1,1,0,0,1,.68.58,1,1,0,0,1-.06.88L345,52.72l6.19,1.6a1,1,0,0,1,.67.58,1,1,0,0,1-.05.89L348,62.46A1,1,0,0,1,347.11,63Z"/><path class="cls-2" d="M473.38,203.78a1,1,0,0,1-.65-.24L465.11,197a1,1,0,0,1,1.31-1.52l6.62,5.68,3.72-7.89a1,1,0,0,1,.69-.55,1,1,0,0,1,.86.22l6.63,5.68,3.73-7.9a1,1,0,0,1,1.81.86l-4.29,9.08a1,1,0,0,1-1.55.33L478,195.32l-3.73,7.89a1,1,0,0,1-.69.55A.75.75,0,0,1,473.38,203.78Z"/><path class="cls-2" d="M381.85,175.41a1,1,0,0,1-.76-.36l-5.77-6.78a1,1,0,0,1,.11-1.4,1,1,0,0,1,1.41.11l4.93,5.78,4.27-6.28a1,1,0,0,1,.77-.44,1,1,0,0,1,.82.35l4.93,5.78,4.27-6.28a1,1,0,0,1,1.66,1.13l-5,7.36a1,1,0,0,1-.77.44,1,1,0,0,1-.82-.35L387,168.69,382.68,175a1,1,0,0,1-.77.43Z"/><path class="cls-2" d="M471.76,135.63a1,1,0,0,1-.33-1.94l1.19-.42-.71-1a1,1,0,0,1-.13-.87,1,1,0,0,1,.62-.64l1.2-.41-.72-1a1,1,0,0,1,1.65-1.14l1.46,2.12a1,1,0,0,1,.12.88,1,1,0,0,1-.62.63l-1.19.42.72,1a1,1,0,0,1,.12.88,1,1,0,0,1-.62.63l-2.43.85A1.26,1.26,0,0,1,471.76,135.63Z"/><path class="cls-2" d="M363.67,81a.91.91,0,0,1-.35-.07,1,1,0,0,1-.58-1.29l.7-1.84-2-.19a1,1,0,0,1-.84-1.35l.7-1.85-2-.19a1,1,0,0,1,.19-2l3.27.31a1,1,0,0,1,.84,1.35l-.7,1.85,2,.19a1,1,0,0,1,.75.47,1,1,0,0,1,.09.88l-1.17,3.08A1,1,0,0,1,363.67,81Z"/><path class="cls-2" d="M424.47,265a1,1,0,0,1-.83-.44l-4.56-6.8-5.35,6.2a1,1,0,0,1-1.58-.09l-4.57-6.8-5.35,6.2a1,1,0,0,1-1.52-1.31l6.21-7.19a1,1,0,0,1,.82-.34,1,1,0,0,1,.77.44l4.57,6.79,5.34-6.19a1,1,0,0,1,1.59.09l5.29,7.89a1,1,0,0,1-.27,1.38A1,1,0,0,1,424.47,265Z"/><path class="cls-2" d="M360.82,41.66a1,1,0,0,1-1-.8l-.34-1.66a1,1,0,0,1,.23-.86,1,1,0,0,1,.82-.33l.38,0-.07-.37a1,1,0,0,1,.23-.86,1,1,0,0,1,.82-.34l1.68.12a1,1,0,1,1-.14,2l-.37,0,.07.37a1,1,0,0,1-.23.86,1,1,0,0,1-.82.34l-.38,0,.08.38a1,1,0,0,1-.79,1.17A.65.65,0,0,1,360.82,41.66Z"/><path class="cls-2" d="M466.54,18a1,1,0,0,1-.59-1.81l.83-.61L466,15a1,1,0,0,1-.38-.8,1,1,0,0,1,.41-.79l.83-.61-.81-.64a1,1,0,0,1-.17-1.41,1,1,0,0,1,1.4-.16L469.09,12a1,1,0,0,1,.39.8,1,1,0,0,1-.41.79l-.83.61.81.64a1,1,0,0,1,0,1.59l-1.88,1.39A1,1,0,0,1,466.54,18Z"/><path class="cls-2" d="M376.46,226.66h0l-3.39-.11a1,1,0,0,1-.78-.42,1,1,0,0,1-.15-.87l.61-2-2.07-.06a1,1,0,0,1-.93-1.3l1-3.24a1,1,0,1,1,1.91.59l-.61,2,2.08.06a1,1,0,0,1,.78.42,1,1,0,0,1,.14.87l-.61,2,2.08.07a1,1,0,0,1,0,2Z"/><path class="cls-2" d="M498.84,280.26h-.12a1,1,0,0,1-.74-.49l-2.49-4.17-3.36,3.5a1,1,0,0,1-1.58-.19l-3.15-5.3a1,1,0,0,1,.35-1.37,1,1,0,0,1,1.37.35l2.48,4.17,3.36-3.49a1,1,0,0,1,.84-.3,1,1,0,0,1,.74.48l2.49,4.18,3.37-3.5a1,1,0,0,1,1.41,0,1,1,0,0,1,0,1.42L499.56,280A1,1,0,0,1,498.84,280.26Z"/><path class="cls-2" d="M291.68,244a1,1,0,0,1-.38-.08l-7.81-3.18a1,1,0,0,1,.75-1.86l6.6,2.7.85-7.09a1,1,0,0,1,1.37-.81l6.61,2.69.85-7.08a1,1,0,0,1,1.12-.88,1,1,0,0,1,.87,1.11l-1,8.39a1,1,0,0,1-.48.75,1,1,0,0,1-.89.06L293.52,236l-.84,7.09a1,1,0,0,1-.49.74A1,1,0,0,1,291.68,244Z"/><path class="cls-2" d="M313.53,217.34a1,1,0,0,1-.94-.67l-3.25-9.35a1,1,0,0,1,.88-1.33l8.58-.57L316,197.3a1,1,0,0,1,.11-.88,1,1,0,0,1,.77-.45l9.87-.65a1,1,0,0,1,1.07.93,1,1,0,0,1-.93,1.07l-8.57.56,2.82,8.12a1,1,0,0,1-.88,1.32l-8.58.58,2.82,8.12a1,1,0,0,1-.62,1.27A1,1,0,0,1,313.53,217.34Z"/><path class="cls-2" d="M512.35,120.75a1,1,0,0,1-1-.82l-.23-1.32-1.21.57a1,1,0,0,1-1.41-.72l-.24-1.32-1.21.57a1,1,0,1,1-.85-1.81l2.39-1.13a1,1,0,0,1,.89,0,1,1,0,0,1,.52.72l.24,1.32,1.21-.58a1,1,0,0,1,.88,0,1,1,0,0,1,.53.71l.46,2.61a1,1,0,0,1-.81,1.16Z"/><path class="cls-2" d="M479.41,164a1,1,0,0,1-.77-.37,1,1,0,0,1,.13-1.41l3-2.42-3.12-2.19a1,1,0,0,1-.42-.78,1,1,0,0,1,.36-.81l2.95-2.43-3.12-2.2a1,1,0,0,1-.24-1.39,1,1,0,0,1,1.4-.24l4.18,2.95a1,1,0,0,1,.42.78,1,1,0,0,1-.36.81l-2.94,2.43,3.11,2.2a1,1,0,0,1,.42.78,1,1,0,0,1-.36.81l-4,3.25A1,1,0,0,1,479.41,164Z"/><path class="cls-2" d="M443.45,280.47a1,1,0,0,1-.68-.26l-6.06-5.64a1,1,0,0,1,1.37-1.47l5.1,4.75,3.22-6.18a1,1,0,0,1,1.57-.27l5.11,4.75,3.23-6.18a1,1,0,1,1,1.77.93l-3.84,7.34a1,1,0,0,1-1.56.27l-5.11-4.75-3.23,6.18a1,1,0,0,1-.72.52Z"/><path class="cls-2" d="M390.43,257.2a1,1,0,0,1-.82-.42l-1.68-2.4a1,1,0,0,1,.48-1.52l1.52-.55L389,251a1,1,0,0,1-.13-.88,1,1,0,0,1,.61-.64l2.76-1a1,1,0,0,1,.67,1.89l-1.52.54.93,1.33a1,1,0,0,1,.14.87,1,1,0,0,1-.62.64l-1.52.55.93,1.33a1,1,0,0,1-.82,1.57Z"/><path class="cls-2" d="M436.34,78a1,1,0,0,1-.58-.18l-6.27-4.43a1,1,0,1,1,1.16-1.63l5.19,3.67,2.17-6a1,1,0,0,1,.64-.61,1,1,0,0,1,.88.14l5.2,3.67,2.17-6a1,1,0,1,1,1.88.68l-2.62,7.22a1,1,0,0,1-1.51.48l-5.21-3.67-2.16,6a1,1,0,0,1-.94.66Z"/><path class="cls-2" d="M389.24,210.5a1,1,0,0,1-.62-.22,1,1,0,0,1-.38-.8l0-1.83-1.78.45a1,1,0,0,1-.86-.19,1,1,0,0,1-.38-.8l.07-3.14a1,1,0,0,1,1-1h0a1,1,0,0,1,1,1l0,1.83,1.77-.45a1,1,0,0,1,.87.19,1,1,0,0,1,.38.8l0,1.83,1.78-.44a1,1,0,0,1,.49,1.93l-3.05.77A1.07,1.07,0,0,1,389.24,210.5Z"/><path class="cls-2" d="M424.48,101.49a1,1,0,0,1-1-.93l-.28-4a1,1,0,0,1,.33-.82,1,1,0,0,1,.86-.23l2.68.53-.19-2.72a1,1,0,0,1,.34-.83,1,1,0,0,1,.86-.22l4,.79a1,1,0,0,1,.78,1.18,1,1,0,0,1-1.17.78L429,94.45l.19,2.73a1,1,0,0,1-1.2,1l-2.68-.54.19,2.73a1,1,0,0,1-.92,1.07Z"/><path class="cls-2" d="M337.5,13.3a1,1,0,0,1-.94-.65l-.29-.76-.66.48a1,1,0,0,1-1.52-.45l-.3-.77-.66.48A1,1,0,1,1,332,10l1.72-1.26a1,1,0,0,1,.88-.15,1,1,0,0,1,.65.6l.29.77.66-.48a1,1,0,0,1,1.53.45l.75,2a1,1,0,0,1-.58,1.28A.84.84,0,0,1,337.5,13.3Z"/><path class="cls-2" d="M526.94,56.16a1,1,0,0,1-.63-.22l-4.18-3.37a1,1,0,0,1-.38-.81,1,1,0,0,1,.42-.78l3.29-2.38-3.16-2.55a1,1,0,0,1-.37-.81,1,1,0,0,1,.42-.78l4.35-3.14a1,1,0,0,1,1.4.23,1,1,0,0,1-.23,1.39l-3.29,2.38,3.16,2.55a1,1,0,0,1,.37.8,1,1,0,0,1-.41.79l-3.3,2.37,3.16,2.56a1,1,0,0,1,.15,1.4A1,1,0,0,1,526.94,56.16Z"/><path class="cls-2" d="M351.48,27.25l-.17,0a1,1,0,0,1-.82-1.14l1.59-9.68a1,1,0,0,1,1.4-.74l7.72,3.54,1.38-8.38a1,1,0,0,1,.52-.72,1,1,0,0,1,.88,0l8.9,4.09a1,1,0,1,1-.83,1.81l-7.71-3.54L363,20.83a1,1,0,0,1-1.4.74L353.84,18l-1.38,8.38A1,1,0,0,1,351.48,27.25Z"/><path class="cls-2" d="M295.77,197a1,1,0,0,1-1-.73l-1-3.49-3.1,1.89a1,1,0,0,1-1.48-.58l-1-3.5-3.11,1.89a1,1,0,0,1-1.37-.34,1,1,0,0,1,.33-1.37l4.23-2.57a1,1,0,0,1,.89-.07,1,1,0,0,1,.59.65l1,3.5,3.11-1.89a1,1,0,0,1,.88-.08,1,1,0,0,1,.6.66l1.35,4.75a1,1,0,0,1-.68,1.24A1,1,0,0,1,295.77,197Z"/><path class="cls-2" d="M318.14,239H318a1,1,0,0,1-.82-1.16l1-5.69a1,1,0,0,1,.52-.71,1,1,0,0,1,.89,0l4,1.89.75-4.4a1,1,0,0,1,.53-.72,1,1,0,0,1,.88,0l5.23,2.44a1,1,0,0,1-.85,1.81l-4-1.89-.75,4.4a1,1,0,0,1-.52.71,1,1,0,0,1-.89,0l-4-1.89-.76,4.4A1,1,0,0,1,318.14,239Z"/><path class="cls-2" d="M482,54.1l-.18,0-8.34-1.52a1,1,0,0,1-.73-1.41l3.11-6.47-7.06-1.29a1,1,0,0,1-.71-.53.94.94,0,0,1,0-.88l3.67-7.65a1,1,0,1,1,1.8.87l-3.1,6.46,7.05,1.28a1,1,0,0,1,.73,1.42l-3.11,6.47,7.06,1.29a1,1,0,0,1-.18,2Z"/><path class="cls-2" d="M477.36,90.1a1,1,0,0,1-1-.76l-1.87-7.67a1,1,0,0,1,.2-.86.91.91,0,0,1,.8-.37l6.58.18-1.56-6.39a1,1,0,0,1,.2-.86.93.93,0,0,1,.8-.37l7.89.23a1,1,0,0,1,1,1,1,1,0,0,1-1,1L482.8,75l1.55,6.39a1,1,0,0,1-.19.87,1,1,0,0,1-.81.37l-6.58-.19,1.56,6.4a1,1,0,0,1-.74,1.2Z"/><path class="cls-2" d="M548.9,239.5l-.19,0a1,1,0,0,1-.71-.54l-2.76-5.56-4.63,4.14a1,1,0,0,1-.86.23,1,1,0,0,1-.71-.54l-3.34-6.73a1,1,0,0,1,1.79-.89l2.76,5.56,4.64-4.13a1,1,0,0,1,.85-.24,1,1,0,0,1,.71.54l2.76,5.56,4.64-4.13a1,1,0,1,1,1.33,1.49l-5.62,5A1,1,0,0,1,548.9,239.5Z"/><path class="cls-2" d="M373.56,153.8h-.16a1,1,0,0,1-.83-1.15l.09-.56-.56.07A1,1,0,0,1,371,151l.09-.56-.56.06a1,1,0,1,1-.22-2l1.87-.21a1,1,0,0,1,.83.31,1,1,0,0,1,.26.85l-.09.56.57-.07a1,1,0,0,1,1.09,1.16l-.3,1.85A1,1,0,0,1,373.56,153.8Z"/><path class="cls-2" d="M341.76,108.13a1,1,0,0,1-.37-.07,1,1,0,0,1-.55-1.31l.13-.34-.36,0a1,1,0,0,1-.75-.48,1,1,0,0,1-.07-.88l.14-.35-.37,0a1,1,0,0,1,.23-2l1.67.19a1,1,0,0,1,.75.49,1,1,0,0,1,.06.88l-.13.34.36,0a1,1,0,0,1,.75.48,1,1,0,0,1,.07.88l-.63,1.56A1,1,0,0,1,341.76,108.13Z"/><path class="cls-2" d="M376.18,67h-.12a1,1,0,0,1-.87-1.1l.4-3.54-3.52.55a1,1,0,0,1-.84-.27,1,1,0,0,1-.3-.83l.4-3.54-3.52.54a1,1,0,1,1-.3-2l4.81-.74a1,1,0,0,1,.85.27,1,1,0,0,1,.3.83l-.41,3.54,3.52-.54a1,1,0,0,1,.85.26,1,1,0,0,1,.3.84l-.56,4.84A1,1,0,0,1,376.18,67Z"/><path class="cls-2" d="M310.08,16.67H310a1,1,0,0,1-.91-1.09l.34-3.75a1,1,0,0,1,.46-.76,1,1,0,0,1,.88-.09l2.31.86.22-2.46a1,1,0,0,1,.46-.75,1,1,0,0,1,.88-.1l3.54,1.32a1,1,0,0,1-.7,1.88l-2.31-.86L315,13.32a1,1,0,0,1-1.35.85l-2.31-.86-.22,2.45A1,1,0,0,1,310.08,16.67Z"/><path class="cls-2" d="M495.75,259.11a1,1,0,0,1-.56-.17l-7-4.74a1,1,0,0,1-.43-.77,1,1,0,0,1,.35-.82l5.41-4.61-5.87-4a1,1,0,0,1-.44-.77,1.07,1.07,0,0,1,.35-.82L494,237a1,1,0,0,1,1.41.12,1,1,0,0,1-.11,1.41l-5.41,4.6,5.87,4a1,1,0,0,1,.43.77,1,1,0,0,1-.35.82l-5.41,4.6,5.87,4a1,1,0,0,1,.27,1.39A1,1,0,0,1,495.75,259.11Z"/><path class="cls-2" d="M355.1,121a1,1,0,0,1-.91-.59l-.38-.85-.72.59a1,1,0,0,1-.86.2,1,1,0,0,1-.69-.56l-.38-.85-.71.59a1,1,0,0,1-1.28-1.54l1.73-1.43a1,1,0,0,1,.87-.2,1,1,0,0,1,.68.57l.38.84.72-.59a1,1,0,0,1,.86-.2,1,1,0,0,1,.69.57l.91,2a1,1,0,0,1-.5,1.32A1,1,0,0,1,355.1,121Z"/><path class="cls-2" d="M342,84.81h0l-4.7-.14a1,1,0,0,1-1-1,1,1,0,0,1,1-1l3.38.1-.79-3.29a1,1,0,0,1,.19-.86,1,1,0,0,1,.81-.37l3.39.1-.79-3.3a1,1,0,0,1,1.94-.47l1.1,4.58a1,1,0,0,1-1,1.23l-3.39-.1.79,3.29a1,1,0,0,1-1,1.24Z"/><path class="cls-2" d="M285.27,65.85a1,1,0,0,1-.45-1.89l1.33-.67-1-1.11a1,1,0,0,1-.24-.85,1,1,0,0,1,.53-.71l1.33-.68-1-1.1a1,1,0,0,1,.07-1.42,1,1,0,0,1,1.41.07l1.88,2.08a1,1,0,0,1-.29,1.57l-1.33.67,1,1.11a1,1,0,0,1-.29,1.56l-2.5,1.26A.93.93,0,0,1,285.27,65.85Z"/><path class="cls-2" d="M556.66,174a1.15,1.15,0,0,1-.26,0,1,1,0,0,1-.7-1.23l.18-.67h-.7a1,1,0,0,1-.79-.39,1,1,0,0,1-.17-.87l.18-.67h-.7a1,1,0,0,1-1-1,1,1,0,0,1,1-1h2a1,1,0,0,1,.8.4,1,1,0,0,1,.17.87l-.19.67h.7a1,1,0,0,1,1,1.26l-.52,1.94A1,1,0,0,1,556.66,174Z"/><path class="cls-2" d="M542.48,147.61a1.06,1.06,0,0,1-.57-.17,1,1,0,0,1-.43-.77l-.11-1.85-1.75.59a1,1,0,0,1-1.31-.9l-.18-3.15a1,1,0,0,1,2-.11l.1,1.84,1.75-.58a1,1,0,0,1,.88.12,1,1,0,0,1,.44.77l.1,1.85,1.75-.59a1,1,0,1,1,.64,1.9l-3,1A1.12,1.12,0,0,1,542.48,147.61Z"/><path class="cls-2" d="M445.64,214.75a1,1,0,0,1-.62-.22l-4.69-3.76a1,1,0,0,1-.16-1.4,1,1,0,0,1,1.41-.16l3.67,2.94,1.86-4.32a1,1,0,0,1,.67-.57,1,1,0,0,1,.87.19l3.68,2.94,1.86-4.32a1,1,0,1,1,1.84.79l-2.39,5.52a1,1,0,0,1-.67.58,1,1,0,0,1-.87-.19l-3.67-2.94-1.87,4.32a1,1,0,0,1-.67.57A1,1,0,0,1,445.64,214.75Z"/><path class="cls-2" d="M496.07,101.14a1.15,1.15,0,0,1-.36-.07L487,97.77a1,1,0,0,1-.59-1.28,1,1,0,0,1,1.29-.59l7.51,2.84.75-8a1,1,0,0,1,.46-.76,1,1,0,0,1,.88-.08l7.53,2.83.74-8a1,1,0,1,1,2,.18l-.87,9.31a1,1,0,0,1-.46.75,1,1,0,0,1-.88.09l-7.52-2.83-.75,8a1,1,0,0,1-.46.75A1,1,0,0,1,496.07,101.14Z"/><path class="cls-2" d="M471.62,281.74h-.13l-2.75-.38a1,1,0,0,1-.85-1.13,1,1,0,0,1,1.12-.85l1.45.2-.19-1.45a1,1,0,0,1,.28-.84,1,1,0,0,1,.84-.28l1.45.2-.19-1.45a1,1,0,1,1,2-.27l.37,2.75a1,1,0,0,1-.29.84,1,1,0,0,1-.84.28l-1.45-.19.19,1.45a1,1,0,0,1-.28.84A1.05,1.05,0,0,1,471.62,281.74Z"/></g></svg>